solid OpenSCAD_Model
  facet normal -0.830543 -0.556955 0
    outer loop
      vertex 21.084 2.6646 0
      vertex 21.7449 1.67916 0
      vertex 21.084 2.6646 20
    endloop
  endfacet
  facet normal -0.830543 -0.556955 0
    outer loop
      vertex 21.084 2.6646 20
      vertex 21.7449 1.67916 0
      vertex 21.7449 1.67916 20
    endloop
  endfacet
  facet normal 0 0 -1
    outer loop
      vertex 21.084 2.6646 0
      vertex 21.2206 3.08497 0
      vertex 21.7449 1.67916 0
    endloop
  endfacet
  facet normal 0 0 -1
    outer loop
      vertex 21.7449 1.67916 0
      vertex 21.2206 3.08497 0
      vertex 22.3345 3.49378 0
    endloop
  endfacet
  facet normal 0 0 -1
    outer loop
      vertex 21.7449 1.67916 0
      vertex 22.3345 3.49378 0
      vertex 23.2454 3.63415 0
    endloop
  endfacet
  facet normal 0 0 -1
    outer loop
      vertex 21.7449 1.67916 0
      vertex 23.2454 3.63415 0
      vertex 23.9044 3.60405 0
    endloop
  endfacet
  facet normal 0 0 -1
    outer loop
      vertex 21.7449 1.67916 0
      vertex 23.9044 3.60405 0
      vertex 24.2877 3.50892 0
    endloop
  endfacet
  facet normal 0 0 -1
    outer loop
      vertex 21.7449 1.67916 0
      vertex 24.2877 3.50892 0
      vertex 24.408 3.45513 0
    endloop
  endfacet
  facet normal 0 0 -1
    outer loop
      vertex 21.7449 1.67916 0
      vertex 24.408 3.45513 0
      vertex 25.4543 2.80814 0
    endloop
  endfacet
  facet normal 0 0 -1
    outer loop
      vertex 25.7129 4.98266 0
      vertex 25.6406 5.09342 0
      vertex 26.515 4.05015 0
    endloop
  endfacet
  facet normal 0 0 -1
    outer loop
      vertex 26.515 4.05015 0
      vertex 25.6406 5.09342 0
      vertex 25.4864 5.45687 0
    endloop
  endfacet
  facet normal 0 0 -1
    outer loop
      vertex 26.515 4.05015 0
      vertex 25.4864 5.45687 0
      vertex 25.3537 6.10352 0
    endloop
  endfacet
  facet normal 0 0 -1
    outer loop
      vertex 26.515 4.05015 0
      vertex 25.3537 6.10352 0
      vertex 25.3502 7.02469 0
    endloop
  endfacet
  facet normal 0 0 -1
    outer loop
      vertex 26.515 4.05015 0
      vertex 25.3502 7.02469 0
      vertex 25.5801 8.18861 0
    endloop
  endfacet
  facet normal 0 0 -1
    outer loop
      vertex 26.515 4.05015 0
      vertex 25.5801 8.18861 0
      vertex 25.9732 8.38892 0
    endloop
  endfacet
  facet normal 0 0 -1
    outer loop
      vertex 26.515 4.05015 0
      vertex 25.9732 8.38892 0
      vertex 27.05 7.8908 0
    endloop
  endfacet
  facet normal 0 0 -1
    outer loop
      vertex 26.515 4.05015 0
      vertex 27.05 7.8908 0
      vertex 27.7932 7.34651 0
    endloop
  endfacet
  facet normal 0 0 -1
    outer loop
      vertex 26.515 4.05015 0
      vertex 27.7932 7.34651 0
      vertex 28.2384 6.85909 0
    endloop
  endfacet
  facet normal 0 0 -1
    outer loop
      vertex 26.515 4.05015 0
      vertex 28.2384 6.85909 0
      vertex 28.4417 6.52068 0
    endloop
  endfacet
  facet normal 0 0 -1
    outer loop
      vertex 26.515 4.05015 0
      vertex 28.4417 6.52068 0
      vertex 28.4888 6.39707 0
    endloop
  endfacet
  facet normal 0 0 -1
    outer loop
      vertex 26.515 4.05015 0
      vertex 28.4888 6.39707 0
      vertex 28.7718 5.20005 0
    endloop
  endfacet
  facet normal 0 0 -1
    outer loop
      vertex 26.515 4.05015 0
      vertex 28.7718 5.20005 0
      vertex 25.4543 2.80814 0
    endloop
  endfacet
  facet normal 0 0 -1
    outer loop
      vertex 25.4543 2.80814 0
      vertex 28.7718 5.20005 0
      vertex 30.4001 5.32815 0
    endloop
  endfacet
  facet normal 0 0 -1
    outer loop
      vertex 30.4916 6.5549 0
      vertex 30.5188 6.68381 0
      vertex 30.4001 5.32815 0
    endloop
  endfacet
  facet normal 0 0 -1
    outer loop
      vertex 30.4001 5.32815 0
      vertex 30.5188 6.68381 0
      vertex 30.6672 7.04987 0
    endloop
  endfacet
  facet normal 0 0 -1
    outer loop
      vertex 30.4001 5.32815 0
      vertex 30.6672 7.04987 0
      vertex 31.0302 7.60067 0
    endloop
  endfacet
  facet normal 0 0 -1
    outer loop
      vertex 30.4001 5.32815 0
      vertex 31.0302 7.60067 0
      vertex 31.6792 8.25515 0
    endloop
  endfacet
  facet normal 0 0 -1
    outer loop
      vertex 30.4001 5.32815 0
      vertex 31.6792 8.25515 0
      vertex 32.6646 8.91597 0
    endloop
  endfacet
  facet normal 0 0 -1
    outer loop
      vertex 30.4001 5.32815 0
      vertex 32.6646 8.91597 0
      vertex 33.085 8.77939 0
    endloop
  endfacet
  facet normal 0 0 -1
    outer loop
      vertex 30.4001 5.32815 0
      vertex 33.085 8.77939 0
      vertex 33.4938 7.66554 0
    endloop
  endfacet
  facet normal 0 0 -1
    outer loop
      vertex 30.4001 5.32815 0
      vertex 33.4938 7.66554 0
      vertex 33.6341 6.75458 0
    endloop
  endfacet
  facet normal 0 0 -1
    outer loop
      vertex 30.4001 5.32815 0
      vertex 33.6341 6.75458 0
      vertex 25.4543 2.80814 0
    endloop
  endfacet
  facet normal 0 0 -1
    outer loop
      vertex 25.4543 2.80814 0
      vertex 33.6341 6.75458 0
      vertex 33.604 6.09563 0
    endloop
  endfacet
  facet normal 0 0 -1
    outer loop
      vertex 25.4543 2.80814 0
      vertex 33.604 6.09563 0
      vertex 33.5089 5.71226 0
    endloop
  endfacet
  facet normal 0 0 -1
    outer loop
      vertex 25.4543 2.80814 0
      vertex 33.5089 5.71226 0
      vertex 33.4551 5.592 0
    endloop
  endfacet
  facet normal 0 0 -1
    outer loop
      vertex 25.4543 2.80814 0
      vertex 33.4551 5.592 0
      vertex 32.8081 4.54572 0
    endloop
  endfacet
  facet normal 0 0 -1
    outer loop
      vertex 25.4543 2.80814 0
      vertex 32.8081 4.54572 0
      vertex 21.7449 1.67916 0
    endloop
  endfacet
  facet normal 0 0 -1
    outer loop
      vertex 21.7449 1.67916 0
      vertex 32.8081 4.54572 0
      vertex 34.0502 3.485 0
    endloop
  endfacet
  facet normal 0 0 -1
    outer loop
      vertex 34.9827 4.2871 0
      vertex 35.0934 4.35941 0
      vertex 34.0502 3.485 0
    endloop
  endfacet
  facet normal 0 0 -1
    outer loop
      vertex 34.0502 3.485 0
      vertex 35.0934 4.35941 0
      vertex 35.4569 4.51365 0
    endloop
  endfacet
  facet normal 0 0 -1
    outer loop
      vertex 34.0502 3.485 0
      vertex 35.4569 4.51365 0
      vertex 36.1035 4.64632 0
    endloop
  endfacet
  facet normal 0 0 -1
    outer loop
      vertex 34.0502 3.485 0
      vertex 36.1035 4.64632 0
      vertex 37.0247 4.64983 0
    endloop
  endfacet
  facet normal 0 0 -1
    outer loop
      vertex 34.0502 3.485 0
      vertex 37.0247 4.64983 0
      vertex 38.1886 4.41991 0
    endloop
  endfacet
  facet normal 0 0 -1
    outer loop
      vertex 34.0502 3.485 0
      vertex 38.1886 4.41991 0
      vertex 38.3889 4.02676 0
    endloop
  endfacet
  facet normal 0 0 -1
    outer loop
      vertex 34.0502 3.485 0
      vertex 38.3889 4.02676 0
      vertex 21.7449 1.67916 0
    endloop
  endfacet
  facet normal 0 0 -1
    outer loop
      vertex 21.7449 1.67916 0
      vertex 38.3889 4.02676 0
      vertex 37.8908 2.94999 0
    endloop
  endfacet
  facet normal 0 0 -1
    outer loop
      vertex 21.7449 1.67916 0
      vertex 37.8908 2.94999 0
      vertex 37.3465 2.20681 0
    endloop
  endfacet
  facet normal 0 0 -1
    outer loop
      vertex 21.7449 1.67916 0
      vertex 37.3465 2.20681 0
      vertex 36.8591 1.76165 0
    endloop
  endfacet
  facet normal 0 0 -1
    outer loop
      vertex 21.7449 1.67916 0
      vertex 36.8591 1.76165 0
      vertex 36.5207 1.55827 0
    endloop
  endfacet
  facet normal 0 0 -1
    outer loop
      vertex 21.7449 1.67916 0
      vertex 36.5207 1.55827 0
      vertex 36.3971 1.51116 0
    endloop
  endfacet
  facet normal 0 0 -1
    outer loop
      vertex 32.0225 1.46946 0
      vertex 36.3971 1.51116 0
      vertex 35.2 1.22821 0
    endloop
  endfacet
  facet normal 0 0 -1
    outer loop
      vertex 32.4454 0.519779 0
      vertex 35.2 1.22821 0
      vertex 35.3281 -0.40007 0
    endloop
  endfacet
  facet normal 0 0 -1
    outer loop
      vertex 36.5549 -0.491636 0
      vertex 36.6838 -0.518803 0
      vertex 35.3281 -0.40007 0
    endloop
  endfacet
  facet normal 0 0 -1
    outer loop
      vertex 35.3281 -0.40007 0
      vertex 36.6838 -0.518803 0
      vertex 37.0499 -0.667185 0
    endloop
  endfacet
  facet normal 0 0 -1
    outer loop
      vertex 32.5 0 0
      vertex 37.0499 -0.667185 0
      vertex 37.6007 -1.03015 0
    endloop
  endfacet
  facet normal 0 0 -1
    outer loop
      vertex 32.4454 -0.519779 0
      vertex 38.2551 -1.67916 0
      vertex 38.916 -2.6646 0
    endloop
  endfacet
  facet normal 0 0 -1
    outer loop
      vertex 32.2839 -1.01684 0
      vertex 38.916 -2.6646 0
      vertex 38.7794 -3.08497 0
    endloop
  endfacet
  facet normal 0 0 -1
    outer loop
      vertex 32.0225 -1.46946 0
      vertex 38.7794 -3.08497 0
      vertex 37.6655 -3.49378 0
    endloop
  endfacet
  facet normal 0 0 -1
    outer loop
      vertex 34.5457 -2.80814 0
      vertex 37.6655 -3.49378 0
      vertex 36.7546 -3.63415 0
    endloop
  endfacet
  facet normal 0 0 -1
    outer loop
      vertex 32.0225 -1.46946 0
      vertex 34.5457 -2.80814 0
      vertex 31.6728 -1.85786 0
    endloop
  endfacet
  facet normal 0 0 -1
    outer loop
      vertex 35.592 -3.45513 0
      vertex 36.0956 -3.60405 0
      vertex 35.7123 -3.50892 0
    endloop
  endfacet
  facet normal 0 0 -1
    outer loop
      vertex 33.485 -4.05015 0
      vertex 30.7725 -2.37764 0
      vertex 31.25 -2.16506 0
    endloop
  endfacet
  facet normal 0 0 -1
    outer loop
      vertex 31.7616 -6.85909 0
      vertex 32.95 -7.8908 0
      vertex 32.2068 -7.34651 0
    endloop
  endfacet
  facet normal 0 0 -1
    outer loop
      vertex 32.4454 -0.519779 0
      vertex 38.916 -2.6646 0
      vertex 32.2839 -1.01684 0
    endloop
  endfacet
  facet normal 0 0 -1
    outer loop
      vertex 29.2275 -2.37764 0
      vertex 34.3594 -5.09342 0
      vertex 34.5136 -5.45687 0
    endloop
  endfacet
  facet normal 0 0 -1
    outer loop
      vertex 31.2282 -5.20005 0
      vertex 34.6498 -7.02469 0
      vertex 34.4199 -8.18861 0
    endloop
  endfacet
  facet normal 0 0 -1
    outer loop
      vertex 31.7616 -6.85909 0
      vertex 34.0268 -8.38892 0
      vertex 32.95 -7.8908 0
    endloop
  endfacet
  facet normal 0 0 -1
    outer loop
      vertex 31.2282 -5.20005 0
      vertex 34.0268 -8.38892 0
      vertex 31.5112 -6.39707 0
    endloop
  endfacet
  facet normal 0 0 -1
    outer loop
      vertex 31.5583 -6.52068 0
      vertex 34.0268 -8.38892 0
      vertex 31.7616 -6.85909 0
    endloop
  endfacet
  facet normal 0 0 -1
    outer loop
      vertex 31.2282 -5.20005 0
      vertex 34.4199 -8.18861 0
      vertex 34.0268 -8.38892 0
    endloop
  endfacet
  facet normal 0 0 -1
    outer loop
      vertex 31.5112 -6.39707 0
      vertex 34.0268 -8.38892 0
      vertex 31.5583 -6.52068 0
    endloop
  endfacet
  facet normal 0 0 -1
    outer loop
      vertex 30.2613 -2.4863 0
      vertex 33.485 -4.05015 0
      vertex 34.2871 -4.98266 0
    endloop
  endfacet
  facet normal 0 0 -1
    outer loop
      vertex 26.3659 -6.75458 0
      vertex 27.3354 -8.91597 0
      vertex 26.5062 -7.66554 0
    endloop
  endfacet
  facet normal 0 0 -1
    outer loop
      vertex 24.8 -1.22821 0
      vertex 29.5999 -5.32815 0
      vertex 29.5084 -6.5549 0
    endloop
  endfacet
  facet normal 0 0 -1
    outer loop
      vertex 27.1919 -4.54572 0
      vertex 29.4812 -6.68381 0
      vertex 29.3328 -7.04987 0
    endloop
  endfacet
  facet normal 0 0 -1
    outer loop
      vertex 29.2275 -2.37764 0
      vertex 34.5136 -5.45687 0
      vertex 28.75 -2.16506 0
    endloop
  endfacet
  facet normal 0 0 -1
    outer loop
      vertex 27.1919 -4.54572 0
      vertex 28.9698 -7.60067 0
      vertex 28.3208 -8.25515 0
    endloop
  endfacet
  facet normal 0 0 -1
    outer loop
      vertex 27.3354 -8.91597 0
      vertex 26.915 -8.77939 0
      vertex 26.5062 -7.66554 0
    endloop
  endfacet
  facet normal 0 0 -1
    outer loop
      vertex 27.1919 -4.54572 0
      vertex 28.3208 -8.25515 0
      vertex 26.5449 -5.592 0
    endloop
  endfacet
  facet normal 0 0 -1
    outer loop
      vertex 28.3208 -8.25515 0
      vertex 27.3354 -8.91597 0
      vertex 26.3659 -6.75458 0
    endloop
  endfacet
  facet normal 0 0 -1
    outer loop
      vertex 28.3208 -8.25515 0
      vertex 26.3659 -6.75458 0
      vertex 26.396 -6.09563 0
    endloop
  endfacet
  facet normal 0 0 -1
    outer loop
      vertex 28.3208 -8.25515 0
      vertex 26.396 -6.09563 0
      vertex 26.4911 -5.71226 0
    endloop
  endfacet
  facet normal 0 0 -1
    outer loop
      vertex 28.3208 -8.25515 0
      vertex 26.4911 -5.71226 0
      vertex 26.5449 -5.592 0
    endloop
  endfacet
  facet normal 0 0 -1
    outer loop
      vertex 29.7387 -2.4863 0
      vertex 34.2871 -4.98266 0
      vertex 34.3594 -5.09342 0
    endloop
  endfacet
  facet normal 0 0 -1
    outer loop
      vertex 25.0173 -4.2871 0
      vertex 23.4793 -1.55827 0
      vertex 23.6029 -1.51116 0
    endloop
  endfacet
  facet normal 0 0 -1
    outer loop
      vertex 25.0173 -4.2871 0
      vertex 23.6029 -1.51116 0
      vertex 25.9498 -3.485 0
    endloop
  endfacet
  facet normal 0 0 -1
    outer loop
      vertex 24.8 -1.22821 0
      vertex 29.5084 -6.5549 0
      vertex 29.4812 -6.68381 0
    endloop
  endfacet
  facet normal 0 0 -1
    outer loop
      vertex 27.1919 -4.54572 0
      vertex 29.3328 -7.04987 0
      vertex 28.9698 -7.60067 0
    endloop
  endfacet
  facet normal 0 0 -1
    outer loop
      vertex 24.8 -1.22821 0
      vertex 27.1919 -4.54572 0
      vertex 25.9498 -3.485 0
    endloop
  endfacet
  facet normal 0 0 -1
    outer loop
      vertex 22.1092 -2.94999 0
      vertex 21.8114 -4.41991 0
      vertex 21.6111 -4.02676 0
    endloop
  endfacet
  facet normal 0 0 -1
    outer loop
      vertex 23.4793 -1.55827 0
      vertex 25.0173 -4.2871 0
      vertex 24.9066 -4.35941 0
    endloop
  endfacet
  facet normal 0 0 -1
    outer loop
      vertex 23.1409 -1.76165 0
      vertex 23.8965 -4.64632 0
      vertex 22.6535 -2.20681 0
    endloop
  endfacet
  facet normal 0 0 -1
    outer loop
      vertex 22.6535 -2.20681 0
      vertex 22.9753 -4.64983 0
      vertex 22.1092 -2.94999 0
    endloop
  endfacet
  facet normal 0 0 -1
    outer loop
      vertex 22.9753 -4.64983 0
      vertex 21.8114 -4.41991 0
      vertex 22.1092 -2.94999 0
    endloop
  endfacet
  facet normal 0 0 -1
    outer loop
      vertex 23.8965 -4.64632 0
      vertex 22.9753 -4.64983 0
      vertex 22.6535 -2.20681 0
    endloop
  endfacet
  facet normal 0 0 -1
    outer loop
      vertex 23.4793 -1.55827 0
      vertex 24.9066 -4.35941 0
      vertex 24.5431 -4.51365 0
    endloop
  endfacet
  facet normal 0 0 -1
    outer loop
      vertex 24.5431 -4.51365 0
      vertex 23.8965 -4.64632 0
      vertex 23.1409 -1.76165 0
    endloop
  endfacet
  facet normal 0 0 -1
    outer loop
      vertex 24.8 -1.22821 0
      vertex 25.9498 -3.485 0
      vertex 23.6029 -1.51116 0
    endloop
  endfacet
  facet normal 0 0 -1
    outer loop
      vertex 24.8 -1.22821 0
      vertex 29.4812 -6.68381 0
      vertex 27.1919 -4.54572 0
    endloop
  endfacet
  facet normal 0 0 -1
    outer loop
      vertex 22.3993 1.03015 0
      vertex 21.7449 1.67916 0
      vertex 22.9501 0.667185 0
    endloop
  endfacet
  facet normal 0 0 -1
    outer loop
      vertex 22.9501 0.667185 0
      vertex 21.7449 1.67916 0
      vertex 23.3162 0.518803 0
    endloop
  endfacet
  facet normal 0 0 -1
    outer loop
      vertex 24.6719 0.40007 0
      vertex 28.3272 -1.85786 0
      vertex 28.75 -2.16506 0
    endloop
  endfacet
  facet normal 0 0 -1
    outer loop
      vertex 27.5 0 0
      vertex 21.7449 1.67916 0
      vertex 27.5546 0.519779 0
    endloop
  endfacet
  facet normal 0 0 -1
    outer loop
      vertex 28.3272 -1.85786 0
      vertex 24.6719 0.40007 0
      vertex 27.9775 -1.46946 0
    endloop
  endfacet
  facet normal 0 0 -1
    outer loop
      vertex 27.5546 -0.519779 0
      vertex 21.7449 1.67916 0
      vertex 27.5 0 0
    endloop
  endfacet
  facet normal 0 0 -1
    outer loop
      vertex 21.7449 1.67916 0
      vertex 27.5546 -0.519779 0
      vertex 24.6719 0.40007 0
    endloop
  endfacet
  facet normal 0 0 -1
    outer loop
      vertex 28.75 -2.16506 0
      vertex 34.5136 -5.45687 0
      vertex 34.6463 -6.10352 0
    endloop
  endfacet
  facet normal 0 0 -1
    outer loop
      vertex 32.5 0 0
      vertex 37.6007 -1.03015 0
      vertex 38.2551 -1.67916 0
    endloop
  endfacet
  facet normal 0 0 -1
    outer loop
      vertex 30.2613 -2.4863 0
      vertex 34.2871 -4.98266 0
      vertex 29.7387 -2.4863 0
    endloop
  endfacet
  facet normal 0 0 -1
    outer loop
      vertex 29.7387 -2.4863 0
      vertex 34.3594 -5.09342 0
      vertex 29.2275 -2.37764 0
    endloop
  endfacet
  facet normal 0 0 -1
    outer loop
      vertex 32.5 0 0
      vertex 38.2551 -1.67916 0
      vertex 32.4454 -0.519779 0
    endloop
  endfacet
  facet normal 0 0 -1
    outer loop
      vertex 30.7725 -2.37764 0
      vertex 33.485 -4.05015 0
      vertex 30.2613 -2.4863 0
    endloop
  endfacet
  facet normal 0 0 -1
    outer loop
      vertex 23.4793 -1.55827 0
      vertex 24.5431 -4.51365 0
      vertex 23.1409 -1.76165 0
    endloop
  endfacet
  facet normal 0 0 -1
    outer loop
      vertex 32.0225 -1.46946 0
      vertex 37.6655 -3.49378 0
      vertex 34.5457 -2.80814 0
    endloop
  endfacet
  facet normal 0 0 -1
    outer loop
      vertex 27.9775 -1.46946 0
      vertex 24.6719 0.40007 0
      vertex 27.7161 -1.01684 0
    endloop
  endfacet
  facet normal 0 0 -1
    outer loop
      vertex 27.7161 -1.01684 0
      vertex 24.6719 0.40007 0
      vertex 27.5546 -0.519779 0
    endloop
  endfacet
  facet normal 0 0 -1
    outer loop
      vertex 32.2839 -1.01684 0
      vertex 38.7794 -3.08497 0
      vertex 32.0225 -1.46946 0
    endloop
  endfacet
  facet normal 0 0 -1
    outer loop
      vertex 35.3281 -0.40007 0
      vertex 37.0499 -0.667185 0
      vertex 32.5 0 0
    endloop
  endfacet
  facet normal 0 0 -1
    outer loop
      vertex 32.2839 1.01684 0
      vertex 35.2 1.22821 0
      vertex 32.4454 0.519779 0
    endloop
  endfacet
  facet normal 0 0 -1
    outer loop
      vertex 32.0225 1.46946 0
      vertex 35.2 1.22821 0
      vertex 32.2839 1.01684 0
    endloop
  endfacet
  facet normal 0 0 -1
    outer loop
      vertex 31.995 1.5 0
      vertex 36.3971 1.51116 0
      vertex 32.0225 1.46946 0
    endloop
  endfacet
  facet normal 0 0 -1
    outer loop
      vertex 28.005 1.5 0
      vertex 21.7449 1.67916 0
      vertex 31.995 1.5 0
    endloop
  endfacet
  facet normal 0 0 -1
    outer loop
      vertex 21.7449 1.67916 0
      vertex 36.3971 1.51116 0
      vertex 31.995 1.5 0
    endloop
  endfacet
  facet normal 0 0 -1
    outer loop
      vertex 27.7161 1.01684 0
      vertex 21.7449 1.67916 0
      vertex 27.9775 1.46946 0
    endloop
  endfacet
  facet normal 0 0 -1
    outer loop
      vertex 27.5546 0.519779 0
      vertex 21.7449 1.67916 0
      vertex 27.7161 1.01684 0
    endloop
  endfacet
  facet normal 0 0 -1
    outer loop
      vertex 27.9775 1.46946 0
      vertex 21.7449 1.67916 0
      vertex 28.005 1.5 0
    endloop
  endfacet
  facet normal 0 0 -1
    outer loop
      vertex 32.4454 0.519779 0
      vertex 35.3281 -0.40007 0
      vertex 32.5 0 0
    endloop
  endfacet
  facet normal 0 0 -1
    outer loop
      vertex 34.5457 -2.80814 0
      vertex 36.7546 -3.63415 0
      vertex 36.0956 -3.60405 0
    endloop
  endfacet
  facet normal 0 0 -1
    outer loop
      vertex 34.5457 -2.80814 0
      vertex 36.0956 -3.60405 0
      vertex 35.592 -3.45513 0
    endloop
  endfacet
  facet normal 0 0 -1
    outer loop
      vertex 24.6719 0.40007 0
      vertex 28.75 -2.16506 0
      vertex 34.6463 -6.10352 0
    endloop
  endfacet
  facet normal 0 0 -1
    outer loop
      vertex 33.485 -4.05015 0
      vertex 31.25 -2.16506 0
      vertex 31.6728 -1.85786 0
    endloop
  endfacet
  facet normal 0 0 -1
    outer loop
      vertex 33.485 -4.05015 0
      vertex 31.6728 -1.85786 0
      vertex 34.5457 -2.80814 0
    endloop
  endfacet
  facet normal 0 0 -1
    outer loop
      vertex 24.6719 0.40007 0
      vertex 34.6463 -6.10352 0
      vertex 34.6498 -7.02469 0
    endloop
  endfacet
  facet normal 0 0 -1
    outer loop
      vertex 24.6719 0.40007 0
      vertex 34.6498 -7.02469 0
      vertex 31.2282 -5.20005 0
    endloop
  endfacet
  facet normal 0 0 -1
    outer loop
      vertex 24.6719 0.40007 0
      vertex 31.2282 -5.20005 0
      vertex 29.5999 -5.32815 0
    endloop
  endfacet
  facet normal 0 0 -1
    outer loop
      vertex 24.6719 0.40007 0
      vertex 29.5999 -5.32815 0
      vertex 24.8 -1.22821 0
    endloop
  endfacet
  facet normal 0 0 -1
    outer loop
      vertex 23.3162 0.518803 0
      vertex 21.7449 1.67916 0
      vertex 23.4451 0.491636 0
    endloop
  endfacet
  facet normal 0 0 -1
    outer loop
      vertex 23.4451 0.491636 0
      vertex 21.7449 1.67916 0
      vertex 24.6719 0.40007 0
    endloop
  endfacet
  facet normal -0.951057 0.309017 0
    outer loop
      vertex 21.084 2.6646 0
      vertex 21.084 2.6646 20
      vertex 21.2206 3.08497 0
    endloop
  endfacet
  facet normal -0.951057 0.309017 0
    outer loop
      vertex 21.2206 3.08497 0
      vertex 21.084 2.6646 20
      vertex 21.2206 3.08497 20
    endloop
  endfacet
  facet normal 0 0 1
    outer loop
      vertex 27.1919 -4.54572 20
      vertex 28.9698 -7.60067 20
      vertex 24.6719 0.40007 20
    endloop
  endfacet
  facet normal 0 0 1
    outer loop
      vertex 21.2206 3.08497 20
      vertex 21.084 2.6646 20
      vertex 21.7449 1.67916 20
    endloop
  endfacet
  facet normal 0 0 1
    outer loop
      vertex 22.9501 0.667185 20
      vertex 21.2206 3.08497 20
      vertex 22.3993 1.03015 20
    endloop
  endfacet
  facet normal 0 0 1
    outer loop
      vertex 22.3993 1.03015 20
      vertex 21.2206 3.08497 20
      vertex 21.7449 1.67916 20
    endloop
  endfacet
  facet normal 0 0 1
    outer loop
      vertex 23.3162 0.518803 20
      vertex 21.2206 3.08497 20
      vertex 22.9501 0.667185 20
    endloop
  endfacet
  facet normal 0 0 1
    outer loop
      vertex 23.4451 0.491636 20
      vertex 21.2206 3.08497 20
      vertex 23.3162 0.518803 20
    endloop
  endfacet
  facet normal 0 0 1
    outer loop
      vertex 24.6719 0.40007 20
      vertex 21.2206 3.08497 20
      vertex 23.4451 0.491636 20
    endloop
  endfacet
  facet normal 0 0 1
    outer loop
      vertex 34.6498 -7.02469 20
      vertex 21.2206 3.08497 20
      vertex 24.6719 0.40007 20
    endloop
  endfacet
  facet normal 0 0 1
    outer loop
      vertex 25.9498 -3.485 20
      vertex 24.6719 0.40007 20
      vertex 24.8 -1.22821 20
    endloop
  endfacet
  facet normal 0 0 1
    outer loop
      vertex 23.4793 -1.55827 20
      vertex 24.8 -1.22821 20
      vertex 23.6029 -1.51116 20
    endloop
  endfacet
  facet normal 0 0 1
    outer loop
      vertex 23.4793 -1.55827 20
      vertex 23.1409 -1.76165 20
      vertex 24.8 -1.22821 20
    endloop
  endfacet
  facet normal 0 0 1
    outer loop
      vertex 23.1409 -1.76165 20
      vertex 22.6535 -2.20681 20
      vertex 24.8 -1.22821 20
    endloop
  endfacet
  facet normal 0 0 1
    outer loop
      vertex 22.6535 -2.20681 20
      vertex 22.1092 -2.94999 20
      vertex 24.8 -1.22821 20
    endloop
  endfacet
  facet normal 0 0 1
    outer loop
      vertex 22.1092 -2.94999 20
      vertex 21.6111 -4.02676 20
      vertex 24.8 -1.22821 20
    endloop
  endfacet
  facet normal 0 0 1
    outer loop
      vertex 21.6111 -4.02676 20
      vertex 21.8114 -4.41991 20
      vertex 24.8 -1.22821 20
    endloop
  endfacet
  facet normal 0 0 1
    outer loop
      vertex 21.8114 -4.41991 20
      vertex 22.9753 -4.64983 20
      vertex 24.8 -1.22821 20
    endloop
  endfacet
  facet normal 0 0 1
    outer loop
      vertex 29.5999 -5.32815 20
      vertex 31.2282 -5.20005 20
      vertex 24.6719 0.40007 20
    endloop
  endfacet
  facet normal 0 0 1
    outer loop
      vertex 22.9753 -4.64983 20
      vertex 23.8965 -4.64632 20
      vertex 24.8 -1.22821 20
    endloop
  endfacet
  facet normal 0 0 1
    outer loop
      vertex 23.8965 -4.64632 20
      vertex 24.5431 -4.51365 20
      vertex 24.8 -1.22821 20
    endloop
  endfacet
  facet normal 0 0 1
    outer loop
      vertex 26.5449 -5.592 20
      vertex 26.4911 -5.71226 20
      vertex 27.1919 -4.54572 20
    endloop
  endfacet
  facet normal 0 0 1
    outer loop
      vertex 24.5431 -4.51365 20
      vertex 24.9066 -4.35941 20
      vertex 24.8 -1.22821 20
    endloop
  endfacet
  facet normal 0 0 1
    outer loop
      vertex 24.9066 -4.35941 20
      vertex 25.0173 -4.2871 20
      vertex 24.8 -1.22821 20
    endloop
  endfacet
  facet normal 0 0 1
    outer loop
      vertex 25.0173 -4.2871 20
      vertex 25.9498 -3.485 20
      vertex 24.8 -1.22821 20
    endloop
  endfacet
  facet normal 0 0 1
    outer loop
      vertex 25.9498 -3.485 20
      vertex 27.1919 -4.54572 20
      vertex 24.6719 0.40007 20
    endloop
  endfacet
  facet normal 0 0 1
    outer loop
      vertex 26.4911 -5.71226 20
      vertex 26.396 -6.09563 20
      vertex 27.1919 -4.54572 20
    endloop
  endfacet
  facet normal 0 0 1
    outer loop
      vertex 26.396 -6.09563 20
      vertex 26.3659 -6.75458 20
      vertex 27.1919 -4.54572 20
    endloop
  endfacet
  facet normal 0 0 1
    outer loop
      vertex 26.3659 -6.75458 20
      vertex 26.5062 -7.66554 20
      vertex 27.1919 -4.54572 20
    endloop
  endfacet
  facet normal 0 0 1
    outer loop
      vertex 26.5062 -7.66554 20
      vertex 26.915 -8.77939 20
      vertex 27.1919 -4.54572 20
    endloop
  endfacet
  facet normal 0 0 1
    outer loop
      vertex 26.915 -8.77939 20
      vertex 27.3354 -8.91597 20
      vertex 27.1919 -4.54572 20
    endloop
  endfacet
  facet normal 0 0 1
    outer loop
      vertex 27.3354 -8.91597 20
      vertex 28.3208 -8.25515 20
      vertex 27.1919 -4.54572 20
    endloop
  endfacet
  facet normal 0 0 1
    outer loop
      vertex 32.0225 -1.46946 20
      vertex 34.5457 -2.80814 20
      vertex 36.7546 -3.63415 20
    endloop
  endfacet
  facet normal 0 0 1
    outer loop
      vertex 28.3208 -8.25515 20
      vertex 28.9698 -7.60067 20
      vertex 27.1919 -4.54572 20
    endloop
  endfacet
  facet normal 0 0 1
    outer loop
      vertex 28.9698 -7.60067 20
      vertex 29.3328 -7.04987 20
      vertex 24.6719 0.40007 20
    endloop
  endfacet
  facet normal 0 0 1
    outer loop
      vertex 31.5112 -6.39707 20
      vertex 31.5583 -6.52068 20
      vertex 31.2282 -5.20005 20
    endloop
  endfacet
  facet normal 0 0 1
    outer loop
      vertex 29.3328 -7.04987 20
      vertex 29.4812 -6.68381 20
      vertex 24.6719 0.40007 20
    endloop
  endfacet
  facet normal 0 0 1
    outer loop
      vertex 29.4812 -6.68381 20
      vertex 29.5084 -6.5549 20
      vertex 24.6719 0.40007 20
    endloop
  endfacet
  facet normal 0 0 1
    outer loop
      vertex 29.5084 -6.5549 20
      vertex 29.5999 -5.32815 20
      vertex 24.6719 0.40007 20
    endloop
  endfacet
  facet normal 0 0 1
    outer loop
      vertex 31.2282 -5.20005 20
      vertex 34.6498 -7.02469 20
      vertex 24.6719 0.40007 20
    endloop
  endfacet
  facet normal 0 0 1
    outer loop
      vertex 31.5583 -6.52068 20
      vertex 31.7616 -6.85909 20
      vertex 31.2282 -5.20005 20
    endloop
  endfacet
  facet normal 0 0 1
    outer loop
      vertex 31.7616 -6.85909 20
      vertex 32.2068 -7.34651 20
      vertex 31.2282 -5.20005 20
    endloop
  endfacet
  facet normal 0 0 1
    outer loop
      vertex 32.2068 -7.34651 20
      vertex 32.95 -7.8908 20
      vertex 31.2282 -5.20005 20
    endloop
  endfacet
  facet normal 0 0 1
    outer loop
      vertex 32.95 -7.8908 20
      vertex 34.0268 -8.38892 20
      vertex 31.2282 -5.20005 20
    endloop
  endfacet
  facet normal 0 0 1
    outer loop
      vertex 34.0268 -8.38892 20
      vertex 34.4199 -8.18861 20
      vertex 31.2282 -5.20005 20
    endloop
  endfacet
  facet normal 0 0 1
    outer loop
      vertex 34.4199 -8.18861 20
      vertex 34.6498 -7.02469 20
      vertex 31.2282 -5.20005 20
    endloop
  endfacet
  facet normal 0 0 1
    outer loop
      vertex 35.2 1.22821 20
      vertex 36.3971 1.51116 20
      vertex 21.2206 3.08497 20
    endloop
  endfacet
  facet normal 0 0 1
    outer loop
      vertex 28.3272 -1.85786 20
      vertex 27.9775 -1.46946 20
      vertex 21.2206 3.08497 20
    endloop
  endfacet
  facet normal 0 0 1
    outer loop
      vertex 27.9775 -1.46946 20
      vertex 27.7161 -1.01684 20
      vertex 21.2206 3.08497 20
    endloop
  endfacet
  facet normal 0 0 1
    outer loop
      vertex 35.592 -3.45513 20
      vertex 35.7123 -3.50892 20
      vertex 34.5457 -2.80814 20
    endloop
  endfacet
  facet normal 0 0 1
    outer loop
      vertex 27.5546 0.519779 20
      vertex 27.7161 1.01684 20
      vertex 21.2206 3.08497 20
    endloop
  endfacet
  facet normal 0 0 1
    outer loop
      vertex 31.6728 -1.85786 20
      vertex 31.25 -2.16506 20
      vertex 34.5457 -2.80814 20
    endloop
  endfacet
  facet normal 0 0 1
    outer loop
      vertex 35.7123 -3.50892 20
      vertex 36.0956 -3.60405 20
      vertex 34.5457 -2.80814 20
    endloop
  endfacet
  facet normal 0 0 1
    outer loop
      vertex 36.0956 -3.60405 20
      vertex 36.7546 -3.63415 20
      vertex 34.5457 -2.80814 20
    endloop
  endfacet
  facet normal 0 0 1
    outer loop
      vertex 27.7161 1.01684 20
      vertex 27.9775 1.46946 20
      vertex 21.2206 3.08497 20
    endloop
  endfacet
  facet normal 0 0 1
    outer loop
      vertex 32.4454 -0.519779 20
      vertex 38.7794 -3.08497 20
      vertex 38.916 -2.6646 20
    endloop
  endfacet
  facet normal 0 0 1
    outer loop
      vertex 24.408 3.45513 20
      vertex 24.2877 3.50892 20
      vertex 21.2206 3.08497 20
    endloop
  endfacet
  facet normal 0 0 1
    outer loop
      vertex 27.7161 -1.01684 20
      vertex 27.5546 -0.519779 20
      vertex 21.2206 3.08497 20
    endloop
  endfacet
  facet normal 0 0 1
    outer loop
      vertex 28.7718 5.20005 20
      vertex 28.4888 6.39707 20
      vertex 25.6406 5.09342 20
    endloop
  endfacet
  facet normal 0 0 1
    outer loop
      vertex 37.0499 -0.667185 20
      vertex 36.6838 -0.518803 20
      vertex 36.5549 -0.491636 20
    endloop
  endfacet
  facet normal 0 0 1
    outer loop
      vertex 37.6007 -1.03015 20
      vertex 37.0499 -0.667185 20
      vertex 35.3281 -0.40007 20
    endloop
  endfacet
  facet normal 0 0 1
    outer loop
      vertex 31.995 1.5 20
      vertex 35.2 1.22821 20
      vertex 21.2206 3.08497 20
    endloop
  endfacet
  facet normal 0 0 1
    outer loop
      vertex 36.3971 1.51116 20
      vertex 36.5207 1.55827 20
      vertex 21.2206 3.08497 20
    endloop
  endfacet
  facet normal 0 0 1
    outer loop
      vertex 36.5207 1.55827 20
      vertex 36.8591 1.76165 20
      vertex 21.2206 3.08497 20
    endloop
  endfacet
  facet normal 0 0 1
    outer loop
      vertex 24.2877 3.50892 20
      vertex 23.9044 3.60405 20
      vertex 21.2206 3.08497 20
    endloop
  endfacet
  facet normal 0 0 1
    outer loop
      vertex 30.4916 6.5549 20
      vertex 30.4001 5.32815 20
      vertex 33.6341 6.75458 20
    endloop
  endfacet
  facet normal 0 0 1
    outer loop
      vertex 31.6792 8.25515 20
      vertex 31.0302 7.60067 20
      vertex 33.085 8.77939 20
    endloop
  endfacet
  facet normal 0 0 1
    outer loop
      vertex 34.9827 4.2871 20
      vertex 38.3889 4.02676 20
      vertex 38.1886 4.41991 20
    endloop
  endfacet
  facet normal 0 0 1
    outer loop
      vertex 37.0247 4.64983 20
      vertex 36.1035 4.64632 20
      vertex 35.4569 4.51365 20
    endloop
  endfacet
  facet normal 0 0 1
    outer loop
      vertex 30.4916 6.5549 20
      vertex 33.6341 6.75458 20
      vertex 33.4938 7.66554 20
    endloop
  endfacet
  facet normal 0 0 1
    outer loop
      vertex 38.1886 4.41991 20
      vertex 37.0247 4.64983 20
      vertex 35.0934 4.35941 20
    endloop
  endfacet
  facet normal 0 0 1
    outer loop
      vertex 38.1886 4.41991 20
      vertex 35.0934 4.35941 20
      vertex 34.9827 4.2871 20
    endloop
  endfacet
  facet normal 0 0 1
    outer loop
      vertex 37.8908 2.94999 20
      vertex 38.3889 4.02676 20
      vertex 34.0502 3.485 20
    endloop
  endfacet
  facet normal 0 0 1
    outer loop
      vertex 30.4001 5.32815 20
      vertex 33.5089 5.71226 20
      vertex 33.604 6.09563 20
    endloop
  endfacet
  facet normal 0 0 1
    outer loop
      vertex 25.5801 8.18861 20
      vertex 25.3502 7.02469 20
      vertex 25.9732 8.38892 20
    endloop
  endfacet
  facet normal 0 0 1
    outer loop
      vertex 30.4001 5.32815 20
      vertex 33.4551 5.592 20
      vertex 33.5089 5.71226 20
    endloop
  endfacet
  facet normal 0 0 1
    outer loop
      vertex 33.085 8.77939 20
      vertex 32.6646 8.91597 20
      vertex 31.6792 8.25515 20
    endloop
  endfacet
  facet normal 0 0 1
    outer loop
      vertex 33.4938 7.66554 20
      vertex 33.085 8.77939 20
      vertex 31.0302 7.60067 20
    endloop
  endfacet
  facet normal 0 0 1
    outer loop
      vertex 25.4864 5.45687 20
      vertex 25.6406 5.09342 20
      vertex 28.4888 6.39707 20
    endloop
  endfacet
  facet normal 0 0 1
    outer loop
      vertex 33.4938 7.66554 20
      vertex 31.0302 7.60067 20
      vertex 30.6672 7.04987 20
    endloop
  endfacet
  facet normal 0 0 1
    outer loop
      vertex 33.4938 7.66554 20
      vertex 30.6672 7.04987 20
      vertex 30.5188 6.68381 20
    endloop
  endfacet
  facet normal 0 0 1
    outer loop
      vertex 28.7718 5.20005 20
      vertex 25.6406 5.09342 20
      vertex 25.7129 4.98266 20
    endloop
  endfacet
  facet normal 0 0 1
    outer loop
      vertex 33.4938 7.66554 20
      vertex 30.5188 6.68381 20
      vertex 30.4916 6.5549 20
    endloop
  endfacet
  facet normal 0 0 1
    outer loop
      vertex 26.515 4.05015 20
      vertex 34.0502 3.485 20
      vertex 32.8081 4.54572 20
    endloop
  endfacet
  facet normal 0 0 1
    outer loop
      vertex 33.604 6.09563 20
      vertex 33.6341 6.75458 20
      vertex 30.4001 5.32815 20
    endloop
  endfacet
  facet normal 0 0 1
    outer loop
      vertex 26.515 4.05015 20
      vertex 25.4543 2.80814 20
      vertex 37.3465 2.20681 20
    endloop
  endfacet
  facet normal 0 0 1
    outer loop
      vertex 23.9044 3.60405 20
      vertex 23.2454 3.63415 20
      vertex 21.2206 3.08497 20
    endloop
  endfacet
  facet normal 0 0 1
    outer loop
      vertex 25.3502 7.02469 20
      vertex 25.3537 6.10352 20
      vertex 27.05 7.8908 20
    endloop
  endfacet
  facet normal 0 0 1
    outer loop
      vertex 25.3537 6.10352 20
      vertex 25.4864 5.45687 20
      vertex 27.7932 7.34651 20
    endloop
  endfacet
  facet normal 0 0 1
    outer loop
      vertex 27.05 7.8908 20
      vertex 25.9732 8.38892 20
      vertex 25.3502 7.02469 20
    endloop
  endfacet
  facet normal 0 0 1
    outer loop
      vertex 25.4864 5.45687 20
      vertex 28.4417 6.52068 20
      vertex 28.2384 6.85909 20
    endloop
  endfacet
  facet normal 0 0 1
    outer loop
      vertex 27.7932 7.34651 20
      vertex 27.05 7.8908 20
      vertex 25.3537 6.10352 20
    endloop
  endfacet
  facet normal 0 0 1
    outer loop
      vertex 28.2384 6.85909 20
      vertex 27.7932 7.34651 20
      vertex 25.4864 5.45687 20
    endloop
  endfacet
  facet normal 0 0 1
    outer loop
      vertex 23.2454 3.63415 20
      vertex 22.3345 3.49378 20
      vertex 21.2206 3.08497 20
    endloop
  endfacet
  facet normal 0 0 1
    outer loop
      vertex 30.2613 -2.4863 20
      vertex 34.3594 -5.09342 20
      vertex 34.2871 -4.98266 20
    endloop
  endfacet
  facet normal 0 0 1
    outer loop
      vertex 32.8081 4.54572 20
      vertex 33.4551 5.592 20
      vertex 26.515 4.05015 20
    endloop
  endfacet
  facet normal 0 0 1
    outer loop
      vertex 36.8591 1.76165 20
      vertex 25.4543 2.80814 20
      vertex 21.2206 3.08497 20
    endloop
  endfacet
  facet normal 0 0 1
    outer loop
      vertex 36.8591 1.76165 20
      vertex 37.3465 2.20681 20
      vertex 25.4543 2.80814 20
    endloop
  endfacet
  facet normal 0 0 1
    outer loop
      vertex 25.4864 5.45687 20
      vertex 28.4888 6.39707 20
      vertex 28.4417 6.52068 20
    endloop
  endfacet
  facet normal 0 0 1
    outer loop
      vertex 25.4543 2.80814 20
      vertex 24.408 3.45513 20
      vertex 21.2206 3.08497 20
    endloop
  endfacet
  facet normal 0 0 1
    outer loop
      vertex 26.515 4.05015 20
      vertex 37.8908 2.94999 20
      vertex 34.0502 3.485 20
    endloop
  endfacet
  facet normal 0 0 1
    outer loop
      vertex 26.515 4.05015 20
      vertex 37.3465 2.20681 20
      vertex 37.8908 2.94999 20
    endloop
  endfacet
  facet normal 0 0 1
    outer loop
      vertex 30.2613 -2.4863 20
      vertex 34.5136 -5.45687 20
      vertex 34.3594 -5.09342 20
    endloop
  endfacet
  facet normal 0 0 1
    outer loop
      vertex 27.5546 -0.519779 20
      vertex 27.5 0 20
      vertex 21.2206 3.08497 20
    endloop
  endfacet
  facet normal 0 0 1
    outer loop
      vertex 32.5 0 20
      vertex 32.4454 -0.519779 20
      vertex 38.2551 -1.67916 20
    endloop
  endfacet
  facet normal 0 0 1
    outer loop
      vertex 32.4454 0.519779 20
      vertex 32.5 0 20
      vertex 35.3281 -0.40007 20
    endloop
  endfacet
  facet normal 0 0 1
    outer loop
      vertex 32.0225 -1.46946 20
      vertex 31.6728 -1.85786 20
      vertex 34.5457 -2.80814 20
    endloop
  endfacet
  facet normal 0 0 1
    outer loop
      vertex 35.4569 4.51365 20
      vertex 35.0934 4.35941 20
      vertex 37.0247 4.64983 20
    endloop
  endfacet
  facet normal 0 0 1
    outer loop
      vertex 35.3281 -0.40007 20
      vertex 32.5 0 20
      vertex 37.6007 -1.03015 20
    endloop
  endfacet
  facet normal 0 0 1
    outer loop
      vertex 34.9827 4.2871 20
      vertex 34.0502 3.485 20
      vertex 38.3889 4.02676 20
    endloop
  endfacet
  facet normal 0 0 1
    outer loop
      vertex 28.005 1.5 20
      vertex 31.995 1.5 20
      vertex 21.2206 3.08497 20
    endloop
  endfacet
  facet normal 0 0 1
    outer loop
      vertex 38.2551 -1.67916 20
      vertex 37.6007 -1.03015 20
      vertex 32.5 0 20
    endloop
  endfacet
  facet normal 0 0 1
    outer loop
      vertex 32.2839 -1.01684 20
      vertex 32.0225 -1.46946 20
      vertex 37.6655 -3.49378 20
    endloop
  endfacet
  facet normal 0 0 1
    outer loop
      vertex 38.916 -2.6646 20
      vertex 38.2551 -1.67916 20
      vertex 32.4454 -0.519779 20
    endloop
  endfacet
  facet normal 0 0 1
    outer loop
      vertex 37.6655 -3.49378 20
      vertex 38.7794 -3.08497 20
      vertex 32.2839 -1.01684 20
    endloop
  endfacet
  facet normal 0 0 1
    outer loop
      vertex 30.2613 -2.4863 20
      vertex 29.7387 -2.4863 20
      vertex 34.5136 -5.45687 20
    endloop
  endfacet
  facet normal 0 0 1
    outer loop
      vertex 36.7546 -3.63415 20
      vertex 37.6655 -3.49378 20
      vertex 32.0225 -1.46946 20
    endloop
  endfacet
  facet normal 0 0 1
    outer loop
      vertex 30.7725 -2.37764 20
      vertex 30.2613 -2.4863 20
      vertex 33.485 -4.05015 20
    endloop
  endfacet
  facet normal 0 0 1
    outer loop
      vertex 33.485 -4.05015 20
      vertex 34.5457 -2.80814 20
      vertex 31.25 -2.16506 20
    endloop
  endfacet
  facet normal 0 0 1
    outer loop
      vertex 33.485 -4.05015 20
      vertex 31.25 -2.16506 20
      vertex 30.7725 -2.37764 20
    endloop
  endfacet
  facet normal 0 0 1
    outer loop
      vertex 27.5 0 20
      vertex 27.5546 0.519779 20
      vertex 21.2206 3.08497 20
    endloop
  endfacet
  facet normal 0 0 1
    outer loop
      vertex 34.2871 -4.98266 20
      vertex 33.485 -4.05015 20
      vertex 30.2613 -2.4863 20
    endloop
  endfacet
  facet normal 0 0 1
    outer loop
      vertex 34.6463 -6.10352 20
      vertex 34.5136 -5.45687 20
      vertex 29.7387 -2.4863 20
    endloop
  endfacet
  facet normal 0 0 1
    outer loop
      vertex 34.6463 -6.10352 20
      vertex 29.7387 -2.4863 20
      vertex 29.2275 -2.37764 20
    endloop
  endfacet
  facet normal 0 0 1
    outer loop
      vertex 34.6498 -7.02469 20
      vertex 28.75 -2.16506 20
      vertex 21.2206 3.08497 20
    endloop
  endfacet
  facet normal 0 0 1
    outer loop
      vertex 34.6498 -7.02469 20
      vertex 34.6463 -6.10352 20
      vertex 28.75 -2.16506 20
    endloop
  endfacet
  facet normal 0 0 1
    outer loop
      vertex 28.75 -2.16506 20
      vertex 28.3272 -1.85786 20
      vertex 21.2206 3.08497 20
    endloop
  endfacet
  facet normal 0 0 1
    outer loop
      vertex 29.2275 -2.37764 20
      vertex 28.75 -2.16506 20
      vertex 34.6463 -6.10352 20
    endloop
  endfacet
  facet normal 0 0 1
    outer loop
      vertex 27.9775 1.46946 20
      vertex 28.005 1.5 20
      vertex 21.2206 3.08497 20
    endloop
  endfacet
  facet normal 0 0 1
    outer loop
      vertex 32.4454 -0.519779 20
      vertex 32.2839 -1.01684 20
      vertex 38.7794 -3.08497 20
    endloop
  endfacet
  facet normal 0 0 1
    outer loop
      vertex 30.4001 5.32815 20
      vertex 26.515 4.05015 20
      vertex 33.4551 5.592 20
    endloop
  endfacet
  facet normal 0 0 1
    outer loop
      vertex 36.5549 -0.491636 20
      vertex 35.3281 -0.40007 20
      vertex 37.0499 -0.667185 20
    endloop
  endfacet
  facet normal 0 0 1
    outer loop
      vertex 35.3281 -0.40007 20
      vertex 32.2839 1.01684 20
      vertex 32.4454 0.519779 20
    endloop
  endfacet
  facet normal 0 0 1
    outer loop
      vertex 35.3281 -0.40007 20
      vertex 32.0225 1.46946 20
      vertex 32.2839 1.01684 20
    endloop
  endfacet
  facet normal 0 0 1
    outer loop
      vertex 35.3281 -0.40007 20
      vertex 31.995 1.5 20
      vertex 32.0225 1.46946 20
    endloop
  endfacet
  facet normal 0 0 1
    outer loop
      vertex 35.3281 -0.40007 20
      vertex 35.2 1.22821 20
      vertex 31.995 1.5 20
    endloop
  endfacet
  facet normal 0 0 1
    outer loop
      vertex 28.7718 5.20005 20
      vertex 26.515 4.05015 20
      vertex 30.4001 5.32815 20
    endloop
  endfacet
  facet normal 0 0 1
    outer loop
      vertex 25.7129 4.98266 20
      vertex 26.515 4.05015 20
      vertex 28.7718 5.20005 20
    endloop
  endfacet
  facet normal -0.704134 -0.710067 0
    outer loop
      vertex 21.7449 1.67916 20
      vertex 21.7449 1.67916 0
      vertex 22.3993 1.03015 0
    endloop
  endfacet
  facet normal -0.704134 -0.710067 0
    outer loop
      vertex 22.3993 1.03015 20
      vertex 21.7449 1.67916 20
      vertex 22.3993 1.03015 0
    endloop
  endfacet
  facet normal -0.550257 -0.834996 0
    outer loop
      vertex 22.3993 1.03015 20
      vertex 22.3993 1.03015 0
      vertex 22.9501 0.667185 0
    endloop
  endfacet
  facet normal -0.550257 -0.834996 0
    outer loop
      vertex 22.9501 0.667185 20
      vertex 22.3993 1.03015 20
      vertex 22.9501 0.667185 0
    endloop
  endfacet
  facet normal -0.375657 -0.926759 0
    outer loop
      vertex 22.9501 0.667185 20
      vertex 22.9501 0.667185 0
      vertex 23.3162 0.518803 0
    endloop
  endfacet
  facet normal -0.375657 -0.926759 0
    outer loop
      vertex 23.3162 0.518803 20
      vertex 22.9501 0.667185 20
      vertex 23.3162 0.518803 0
    endloop
  endfacet
  facet normal -0.206203 -0.978509 0
    outer loop
      vertex 23.3162 0.518803 20
      vertex 23.3162 0.518803 0
      vertex 23.4451 0.491636 0
    endloop
  endfacet
  facet normal -0.206203 -0.978509 0
    outer loop
      vertex 23.4451 0.491636 20
      vertex 23.3162 0.518803 20
      vertex 23.4451 0.491636 0
    endloop
  endfacet
  facet normal -0.074435 -0.997226 0
    outer loop
      vertex 23.4451 0.491636 20
      vertex 23.4451 0.491636 0
      vertex 24.6719 0.40007 0
    endloop
  endfacet
  facet normal -0.074435 -0.997226 0
    outer loop
      vertex 24.6719 0.40007 20
      vertex 23.4451 0.491636 20
      vertex 24.6719 0.40007 0
    endloop
  endfacet
  facet normal -0.996919 -0.0784319 0
    outer loop
      vertex 24.6719 0.40007 0
      vertex 24.8 -1.22821 0
      vertex 24.6719 0.40007 20
    endloop
  endfacet
  facet normal -0.996919 -0.0784319 0
    outer loop
      vertex 24.6719 0.40007 20
      vertex 24.8 -1.22821 0
      vertex 24.8 -1.22821 20
    endloop
  endfacet
  facet normal -0.230038 0.973182 0
    outer loop
      vertex 23.6029 -1.51116 0
      vertex 23.6029 -1.51116 20
      vertex 24.8 -1.22821 0
    endloop
  endfacet
  facet normal -0.230038 0.973182 0
    outer loop
      vertex 24.8 -1.22821 0
      vertex 23.6029 -1.51116 20
      vertex 24.8 -1.22821 20
    endloop
  endfacet
  facet normal -0.35613 0.934436 0
    outer loop
      vertex 23.4793 -1.55827 0
      vertex 23.4793 -1.55827 20
      vertex 23.6029 -1.51116 0
    endloop
  endfacet
  facet normal -0.35613 0.934436 0
    outer loop
      vertex 23.6029 -1.51116 0
      vertex 23.4793 -1.55827 20
      vertex 23.6029 -1.51116 20
    endloop
  endfacet
  facet normal -0.515116 0.857121 0
    outer loop
      vertex 23.1409 -1.76165 0
      vertex 23.1409 -1.76165 20
      vertex 23.4793 -1.55827 0
    endloop
  endfacet
  facet normal -0.515116 0.857121 0
    outer loop
      vertex 23.4793 -1.55827 0
      vertex 23.1409 -1.76165 20
      vertex 23.4793 -1.55827 20
    endloop
  endfacet
  facet normal -0.674378 0.738387 0
    outer loop
      vertex 22.6535 -2.20681 0
      vertex 22.6535 -2.20681 20
      vertex 23.1409 -1.76165 0
    endloop
  endfacet
  facet normal -0.674378 0.738387 0
    outer loop
      vertex 23.1409 -1.76165 0
      vertex 22.6535 -2.20681 20
      vertex 23.1409 -1.76165 20
    endloop
  endfacet
  facet normal -0.806769 0.590867 0
    outer loop
      vertex 22.1092 -2.94999 0
      vertex 22.1092 -2.94999 20
      vertex 22.6535 -2.20681 0
    endloop
  endfacet
  facet normal -0.806769 0.590867 0
    outer loop
      vertex 22.6535 -2.20681 0
      vertex 22.1092 -2.94999 20
      vertex 22.6535 -2.20681 20
    endloop
  endfacet
  facet normal -0.907591 0.419856 0
    outer loop
      vertex 21.6111 -4.02676 0
      vertex 21.6111 -4.02676 20
      vertex 22.1092 -2.94999 0
    endloop
  endfacet
  facet normal -0.907591 0.419856 0
    outer loop
      vertex 22.1092 -2.94999 0
      vertex 21.6111 -4.02676 20
      vertex 22.1092 -2.94999 20
    endloop
  endfacet
  facet normal -0.891007 -0.45399 0
    outer loop
      vertex 21.6111 -4.02676 0
      vertex 21.8114 -4.41991 0
      vertex 21.6111 -4.02676 20
    endloop
  endfacet
  facet normal -0.891007 -0.45399 0
    outer loop
      vertex 21.6111 -4.02676 20
      vertex 21.8114 -4.41991 0
      vertex 21.8114 -4.41991 20
    endloop
  endfacet
  facet normal -0.193798 -0.981042 0
    outer loop
      vertex 21.8114 -4.41991 20
      vertex 21.8114 -4.41991 0
      vertex 22.9753 -4.64983 0
    endloop
  endfacet
  facet normal -0.193798 -0.981042 0
    outer loop
      vertex 22.9753 -4.64983 20
      vertex 21.8114 -4.41991 20
      vertex 22.9753 -4.64983 0
    endloop
  endfacet
  facet normal 0.00381512 -0.999993 0
    outer loop
      vertex 22.9753 -4.64983 20
      vertex 22.9753 -4.64983 0
      vertex 23.8965 -4.64632 0
    endloop
  endfacet
  facet normal 0.00381512 -0.999993 0
    outer loop
      vertex 23.8965 -4.64632 20
      vertex 22.9753 -4.64983 20
      vertex 23.8965 -4.64632 0
    endloop
  endfacet
  facet normal 0.200978 -0.979596 0
    outer loop
      vertex 23.8965 -4.64632 20
      vertex 23.8965 -4.64632 0
      vertex 24.5431 -4.51365 0
    endloop
  endfacet
  facet normal 0.200978 -0.979596 0
    outer loop
      vertex 24.5431 -4.51365 20
      vertex 23.8965 -4.64632 20
      vertex 24.5431 -4.51365 0
    endloop
  endfacet
  facet normal 0.390648 -0.92054 0
    outer loop
      vertex 24.5431 -4.51365 20
      vertex 24.5431 -4.51365 0
      vertex 24.9066 -4.35941 0
    endloop
  endfacet
  facet normal 0.390648 -0.92054 0
    outer loop
      vertex 24.9066 -4.35941 20
      vertex 24.5431 -4.51365 20
      vertex 24.9066 -4.35941 0
    endloop
  endfacet
  facet normal 0.546647 -0.837363 0
    outer loop
      vertex 24.9066 -4.35941 20
      vertex 24.9066 -4.35941 0
      vertex 25.0173 -4.2871 0
    endloop
  endfacet
  facet normal 0.546647 -0.837363 0
    outer loop
      vertex 25.0173 -4.2871 20
      vertex 24.9066 -4.35941 20
      vertex 25.0173 -4.2871 0
    endloop
  endfacet
  facet normal 0.652108 -0.758126 0
    outer loop
      vertex 25.0173 -4.2871 20
      vertex 25.0173 -4.2871 0
      vertex 25.9498 -3.485 0
    endloop
  endfacet
  facet normal 0.652108 -0.758126 0
    outer loop
      vertex 25.9498 -3.485 20
      vertex 25.0173 -4.2871 20
      vertex 25.9498 -3.485 0
    endloop
  endfacet
  facet normal -0.649427 -0.760424 0
    outer loop
      vertex 25.9498 -3.485 20
      vertex 25.9498 -3.485 0
      vertex 27.1919 -4.54572 0
    endloop
  endfacet
  facet normal -0.649427 -0.760424 0
    outer loop
      vertex 27.1919 -4.54572 20
      vertex 25.9498 -3.485 20
      vertex 27.1919 -4.54572 0
    endloop
  endfacet
  facet normal -0.850524 0.525935 0
    outer loop
      vertex 26.5449 -5.592 0
      vertex 26.5449 -5.592 20
      vertex 27.1919 -4.54572 0
    endloop
  endfacet
  facet normal -0.850524 0.525935 0
    outer loop
      vertex 27.1919 -4.54572 0
      vertex 26.5449 -5.592 20
      vertex 27.1919 -4.54572 20
    endloop
  endfacet
  facet normal -0.912834 0.408331 0
    outer loop
      vertex 26.4911 -5.71226 0
      vertex 26.4911 -5.71226 20
      vertex 26.5449 -5.592 0
    endloop
  endfacet
  facet normal -0.912834 0.408331 0
    outer loop
      vertex 26.5449 -5.592 0
      vertex 26.4911 -5.71226 20
      vertex 26.5449 -5.592 20
    endloop
  endfacet
  facet normal -0.970569 0.240822 0
    outer loop
      vertex 26.396 -6.09563 0
      vertex 26.396 -6.09563 20
      vertex 26.4911 -5.71226 0
    endloop
  endfacet
  facet normal -0.970569 0.240822 0
    outer loop
      vertex 26.4911 -5.71226 0
      vertex 26.396 -6.09563 20
      vertex 26.4911 -5.71226 20
    endloop
  endfacet
  facet normal -0.998958 0.045631 0
    outer loop
      vertex 26.3659 -6.75458 0
      vertex 26.3659 -6.75458 20
      vertex 26.396 -6.09563 0
    endloop
  endfacet
  facet normal -0.998958 0.045631 0
    outer loop
      vertex 26.396 -6.09563 0
      vertex 26.3659 -6.75458 20
      vertex 26.396 -6.09563 20
    endloop
  endfacet
  facet normal -0.988336 -0.15229 0
    outer loop
      vertex 26.3659 -6.75458 0
      vertex 26.5062 -7.66554 0
      vertex 26.3659 -6.75458 20
    endloop
  endfacet
  facet normal -0.988336 -0.15229 0
    outer loop
      vertex 26.3659 -6.75458 20
      vertex 26.5062 -7.66554 0
      vertex 26.5062 -7.66554 20
    endloop
  endfacet
  facet normal -0.938767 -0.344553 0
    outer loop
      vertex 26.5062 -7.66554 0
      vertex 26.915 -8.77939 0
      vertex 26.5062 -7.66554 20
    endloop
  endfacet
  facet normal -0.938767 -0.344553 0
    outer loop
      vertex 26.5062 -7.66554 20
      vertex 26.915 -8.77939 0
      vertex 26.915 -8.77939 20
    endloop
  endfacet
  facet normal -0.309017 -0.951057 0
    outer loop
      vertex 26.915 -8.77939 20
      vertex 26.915 -8.77939 0
      vertex 27.3354 -8.91597 0
    endloop
  endfacet
  facet normal -0.309017 -0.951057 0
    outer loop
      vertex 27.3354 -8.91597 20
      vertex 26.915 -8.77939 20
      vertex 27.3354 -8.91597 0
    endloop
  endfacet
  facet normal 0.556955 -0.830543 0
    outer loop
      vertex 27.3354 -8.91597 20
      vertex 27.3354 -8.91597 0
      vertex 28.3208 -8.25515 0
    endloop
  endfacet
  facet normal 0.556955 -0.830543 0
    outer loop
      vertex 28.3208 -8.25515 20
      vertex 27.3354 -8.91597 20
      vertex 28.3208 -8.25515 0
    endloop
  endfacet
  facet normal 0.710067 -0.704134 0
    outer loop
      vertex 28.3208 -8.25515 20
      vertex 28.3208 -8.25515 0
      vertex 28.9698 -7.60067 0
    endloop
  endfacet
  facet normal 0.710067 -0.704134 0
    outer loop
      vertex 28.9698 -7.60067 20
      vertex 28.3208 -8.25515 20
      vertex 28.9698 -7.60067 0
    endloop
  endfacet
  facet normal 0.834996 -0.550257 0
    outer loop
      vertex 28.9698 -7.60067 20
      vertex 28.9698 -7.60067 0
      vertex 29.3328 -7.04987 0
    endloop
  endfacet
  facet normal 0.834996 -0.550257 0
    outer loop
      vertex 29.3328 -7.04987 20
      vertex 28.9698 -7.60067 20
      vertex 29.3328 -7.04987 0
    endloop
  endfacet
  facet normal 0.926759 -0.375657 0
    outer loop
      vertex 29.3328 -7.04987 20
      vertex 29.3328 -7.04987 0
      vertex 29.4812 -6.68381 0
    endloop
  endfacet
  facet normal 0.926759 -0.375657 0
    outer loop
      vertex 29.4812 -6.68381 20
      vertex 29.3328 -7.04987 20
      vertex 29.4812 -6.68381 0
    endloop
  endfacet
  facet normal 0.978509 -0.206203 0
    outer loop
      vertex 29.4812 -6.68381 20
      vertex 29.4812 -6.68381 0
      vertex 29.5084 -6.5549 0
    endloop
  endfacet
  facet normal 0.978509 -0.206203 0
    outer loop
      vertex 29.5084 -6.5549 20
      vertex 29.4812 -6.68381 20
      vertex 29.5084 -6.5549 0
    endloop
  endfacet
  facet normal 0.997226 -0.074435 0
    outer loop
      vertex 29.5084 -6.5549 20
      vertex 29.5084 -6.5549 0
      vertex 29.5999 -5.32815 0
    endloop
  endfacet
  facet normal 0.997226 -0.074435 0
    outer loop
      vertex 29.5999 -5.32815 20
      vertex 29.5084 -6.5549 20
      vertex 29.5999 -5.32815 0
    endloop
  endfacet
  facet normal 0.0784319 -0.996919 0
    outer loop
      vertex 29.5999 -5.32815 20
      vertex 29.5999 -5.32815 0
      vertex 31.2282 -5.20005 0
    endloop
  endfacet
  facet normal 0.0784319 -0.996919 0
    outer loop
      vertex 31.2282 -5.20005 20
      vertex 29.5999 -5.32815 20
      vertex 31.2282 -5.20005 0
    endloop
  endfacet
  facet normal -0.973182 -0.230038 0
    outer loop
      vertex 31.2282 -5.20005 0
      vertex 31.5112 -6.39707 0
      vertex 31.2282 -5.20005 20
    endloop
  endfacet
  facet normal -0.973182 -0.230038 0
    outer loop
      vertex 31.2282 -5.20005 20
      vertex 31.5112 -6.39707 0
      vertex 31.5112 -6.39707 20
    endloop
  endfacet
  facet normal -0.934436 -0.35613 0
    outer loop
      vertex 31.5112 -6.39707 0
      vertex 31.5583 -6.52068 0
      vertex 31.5112 -6.39707 20
    endloop
  endfacet
  facet normal -0.934436 -0.35613 0
    outer loop
      vertex 31.5112 -6.39707 20
      vertex 31.5583 -6.52068 0
      vertex 31.5583 -6.52068 20
    endloop
  endfacet
  facet normal -0.857121 -0.515116 0
    outer loop
      vertex 31.5583 -6.52068 0
      vertex 31.7616 -6.85909 0
      vertex 31.5583 -6.52068 20
    endloop
  endfacet
  facet normal -0.857121 -0.515116 0
    outer loop
      vertex 31.5583 -6.52068 20
      vertex 31.7616 -6.85909 0
      vertex 31.7616 -6.85909 20
    endloop
  endfacet
  facet normal -0.738387 -0.674378 0
    outer loop
      vertex 31.7616 -6.85909 0
      vertex 32.2068 -7.34651 0
      vertex 31.7616 -6.85909 20
    endloop
  endfacet
  facet normal -0.738387 -0.674378 0
    outer loop
      vertex 31.7616 -6.85909 20
      vertex 32.2068 -7.34651 0
      vertex 32.2068 -7.34651 20
    endloop
  endfacet
  facet normal -0.590867 -0.806769 0
    outer loop
      vertex 32.2068 -7.34651 20
      vertex 32.2068 -7.34651 0
      vertex 32.95 -7.8908 0
    endloop
  endfacet
  facet normal -0.590867 -0.806769 0
    outer loop
      vertex 32.95 -7.8908 20
      vertex 32.2068 -7.34651 20
      vertex 32.95 -7.8908 0
    endloop
  endfacet
  facet normal -0.419856 -0.907591 0
    outer loop
      vertex 32.95 -7.8908 20
      vertex 32.95 -7.8908 0
      vertex 34.0268 -8.38892 0
    endloop
  endfacet
  facet normal -0.419856 -0.907591 0
    outer loop
      vertex 34.0268 -8.38892 20
      vertex 32.95 -7.8908 20
      vertex 34.0268 -8.38892 0
    endloop
  endfacet
  facet normal 0.45399 -0.891007 0
    outer loop
      vertex 34.0268 -8.38892 20
      vertex 34.0268 -8.38892 0
      vertex 34.4199 -8.18861 0
    endloop
  endfacet
  facet normal 0.45399 -0.891007 0
    outer loop
      vertex 34.4199 -8.18861 20
      vertex 34.0268 -8.38892 20
      vertex 34.4199 -8.18861 0
    endloop
  endfacet
  facet normal 0.981042 -0.193798 0
    outer loop
      vertex 34.4199 -8.18861 20
      vertex 34.4199 -8.18861 0
      vertex 34.6498 -7.02469 0
    endloop
  endfacet
  facet normal 0.981042 -0.193798 0
    outer loop
      vertex 34.6498 -7.02469 20
      vertex 34.4199 -8.18861 20
      vertex 34.6498 -7.02469 0
    endloop
  endfacet
  facet normal 0.999993 0.00381512 0
    outer loop
      vertex 34.6498 -7.02469 0
      vertex 34.6463 -6.10352 0
      vertex 34.6463 -6.10352 20
    endloop
  endfacet
  facet normal 0.999993 0.00381512 0
    outer loop
      vertex 34.6498 -7.02469 20
      vertex 34.6498 -7.02469 0
      vertex 34.6463 -6.10352 20
    endloop
  endfacet
  facet normal 0.979596 0.200978 0
    outer loop
      vertex 34.6463 -6.10352 0
      vertex 34.5136 -5.45687 0
      vertex 34.5136 -5.45687 20
    endloop
  endfacet
  facet normal 0.979596 0.200978 0
    outer loop
      vertex 34.6463 -6.10352 20
      vertex 34.6463 -6.10352 0
      vertex 34.5136 -5.45687 20
    endloop
  endfacet
  facet normal 0.92054 0.390648 0
    outer loop
      vertex 34.5136 -5.45687 0
      vertex 34.3594 -5.09342 0
      vertex 34.3594 -5.09342 20
    endloop
  endfacet
  facet normal 0.92054 0.390648 0
    outer loop
      vertex 34.5136 -5.45687 20
      vertex 34.5136 -5.45687 0
      vertex 34.3594 -5.09342 20
    endloop
  endfacet
  facet normal 0.837363 0.546647 0
    outer loop
      vertex 34.3594 -5.09342 0
      vertex 34.2871 -4.98266 0
      vertex 34.2871 -4.98266 20
    endloop
  endfacet
  facet normal 0.837363 0.546647 0
    outer loop
      vertex 34.3594 -5.09342 20
      vertex 34.3594 -5.09342 0
      vertex 34.2871 -4.98266 20
    endloop
  endfacet
  facet normal 0.758126 0.652108 0
    outer loop
      vertex 34.2871 -4.98266 0
      vertex 33.485 -4.05015 0
      vertex 33.485 -4.05015 20
    endloop
  endfacet
  facet normal 0.758126 0.652108 0
    outer loop
      vertex 34.2871 -4.98266 20
      vertex 34.2871 -4.98266 0
      vertex 33.485 -4.05015 20
    endloop
  endfacet
  facet normal 0.760424 -0.649427 0
    outer loop
      vertex 33.485 -4.05015 20
      vertex 33.485 -4.05015 0
      vertex 34.5457 -2.80814 0
    endloop
  endfacet
  facet normal 0.760424 -0.649427 0
    outer loop
      vertex 34.5457 -2.80814 20
      vertex 33.485 -4.05015 20
      vertex 34.5457 -2.80814 0
    endloop
  endfacet
  facet normal -0.525935 -0.850524 0
    outer loop
      vertex 34.5457 -2.80814 20
      vertex 34.5457 -2.80814 0
      vertex 35.592 -3.45513 0
    endloop
  endfacet
  facet normal -0.525935 -0.850524 0
    outer loop
      vertex 35.592 -3.45513 20
      vertex 34.5457 -2.80814 20
      vertex 35.592 -3.45513 0
    endloop
  endfacet
  facet normal -0.408331 -0.912834 0
    outer loop
      vertex 35.592 -3.45513 20
      vertex 35.592 -3.45513 0
      vertex 35.7123 -3.50892 0
    endloop
  endfacet
  facet normal -0.408331 -0.912834 0
    outer loop
      vertex 35.7123 -3.50892 20
      vertex 35.592 -3.45513 20
      vertex 35.7123 -3.50892 0
    endloop
  endfacet
  facet normal -0.240822 -0.970569 0
    outer loop
      vertex 35.7123 -3.50892 20
      vertex 35.7123 -3.50892 0
      vertex 36.0956 -3.60405 0
    endloop
  endfacet
  facet normal -0.240822 -0.970569 0
    outer loop
      vertex 36.0956 -3.60405 20
      vertex 35.7123 -3.50892 20
      vertex 36.0956 -3.60405 0
    endloop
  endfacet
  facet normal -0.045631 -0.998958 0
    outer loop
      vertex 36.0956 -3.60405 20
      vertex 36.0956 -3.60405 0
      vertex 36.7546 -3.63415 0
    endloop
  endfacet
  facet normal -0.045631 -0.998958 0
    outer loop
      vertex 36.7546 -3.63415 20
      vertex 36.0956 -3.60405 20
      vertex 36.7546 -3.63415 0
    endloop
  endfacet
  facet normal 0.15229 -0.988336 0
    outer loop
      vertex 36.7546 -3.63415 20
      vertex 36.7546 -3.63415 0
      vertex 37.6655 -3.49378 0
    endloop
  endfacet
  facet normal 0.15229 -0.988336 0
    outer loop
      vertex 37.6655 -3.49378 20
      vertex 36.7546 -3.63415 20
      vertex 37.6655 -3.49378 0
    endloop
  endfacet
  facet normal 0.344553 -0.938767 0
    outer loop
      vertex 37.6655 -3.49378 20
      vertex 37.6655 -3.49378 0
      vertex 38.7794 -3.08497 0
    endloop
  endfacet
  facet normal 0.344553 -0.938767 0
    outer loop
      vertex 38.7794 -3.08497 20
      vertex 37.6655 -3.49378 20
      vertex 38.7794 -3.08497 0
    endloop
  endfacet
  facet normal 0.951057 -0.309017 0
    outer loop
      vertex 38.7794 -3.08497 20
      vertex 38.7794 -3.08497 0
      vertex 38.916 -2.6646 0
    endloop
  endfacet
  facet normal 0.951057 -0.309017 0
    outer loop
      vertex 38.916 -2.6646 20
      vertex 38.7794 -3.08497 20
      vertex 38.916 -2.6646 0
    endloop
  endfacet
  facet normal 0.830543 0.556955 0
    outer loop
      vertex 38.916 -2.6646 0
      vertex 38.2551 -1.67916 0
      vertex 38.2551 -1.67916 20
    endloop
  endfacet
  facet normal 0.830543 0.556955 0
    outer loop
      vertex 38.916 -2.6646 20
      vertex 38.916 -2.6646 0
      vertex 38.2551 -1.67916 20
    endloop
  endfacet
  facet normal 0.704134 0.710067 0
    outer loop
      vertex 37.6007 -1.03015 0
      vertex 37.6007 -1.03015 20
      vertex 38.2551 -1.67916 0
    endloop
  endfacet
  facet normal 0.704134 0.710067 0
    outer loop
      vertex 38.2551 -1.67916 0
      vertex 37.6007 -1.03015 20
      vertex 38.2551 -1.67916 20
    endloop
  endfacet
  facet normal 0.550257 0.834996 0
    outer loop
      vertex 37.0499 -0.667185 0
      vertex 37.0499 -0.667185 20
      vertex 37.6007 -1.03015 0
    endloop
  endfacet
  facet normal 0.550257 0.834996 0
    outer loop
      vertex 37.6007 -1.03015 0
      vertex 37.0499 -0.667185 20
      vertex 37.6007 -1.03015 20
    endloop
  endfacet
  facet normal 0.375657 0.926759 0
    outer loop
      vertex 36.6838 -0.518803 0
      vertex 36.6838 -0.518803 20
      vertex 37.0499 -0.667185 0
    endloop
  endfacet
  facet normal 0.375657 0.926759 0
    outer loop
      vertex 37.0499 -0.667185 0
      vertex 36.6838 -0.518803 20
      vertex 37.0499 -0.667185 20
    endloop
  endfacet
  facet normal 0.206203 0.978509 0
    outer loop
      vertex 36.5549 -0.491636 0
      vertex 36.5549 -0.491636 20
      vertex 36.6838 -0.518803 0
    endloop
  endfacet
  facet normal 0.206203 0.978509 0
    outer loop
      vertex 36.6838 -0.518803 0
      vertex 36.5549 -0.491636 20
      vertex 36.6838 -0.518803 20
    endloop
  endfacet
  facet normal 0.074435 0.997226 0
    outer loop
      vertex 35.3281 -0.40007 0
      vertex 35.3281 -0.40007 20
      vertex 36.5549 -0.491636 0
    endloop
  endfacet
  facet normal 0.074435 0.997226 0
    outer loop
      vertex 36.5549 -0.491636 0
      vertex 35.3281 -0.40007 20
      vertex 36.5549 -0.491636 20
    endloop
  endfacet
  facet normal 0.996919 0.0784319 0
    outer loop
      vertex 35.3281 -0.40007 0
      vertex 35.2 1.22821 0
      vertex 35.2 1.22821 20
    endloop
  endfacet
  facet normal 0.996919 0.0784319 0
    outer loop
      vertex 35.3281 -0.40007 20
      vertex 35.3281 -0.40007 0
      vertex 35.2 1.22821 20
    endloop
  endfacet
  facet normal 0.230038 -0.973182 0
    outer loop
      vertex 35.2 1.22821 20
      vertex 35.2 1.22821 0
      vertex 36.3971 1.51116 0
    endloop
  endfacet
  facet normal 0.230038 -0.973182 0
    outer loop
      vertex 36.3971 1.51116 20
      vertex 35.2 1.22821 20
      vertex 36.3971 1.51116 0
    endloop
  endfacet
  facet normal 0.35613 -0.934436 0
    outer loop
      vertex 36.3971 1.51116 20
      vertex 36.3971 1.51116 0
      vertex 36.5207 1.55827 0
    endloop
  endfacet
  facet normal 0.35613 -0.934436 0
    outer loop
      vertex 36.5207 1.55827 20
      vertex 36.3971 1.51116 20
      vertex 36.5207 1.55827 0
    endloop
  endfacet
  facet normal 0.515116 -0.857121 0
    outer loop
      vertex 36.5207 1.55827 20
      vertex 36.5207 1.55827 0
      vertex 36.8591 1.76165 0
    endloop
  endfacet
  facet normal 0.515116 -0.857121 0
    outer loop
      vertex 36.8591 1.76165 20
      vertex 36.5207 1.55827 20
      vertex 36.8591 1.76165 0
    endloop
  endfacet
  facet normal 0.674378 -0.738387 0
    outer loop
      vertex 36.8591 1.76165 20
      vertex 36.8591 1.76165 0
      vertex 37.3465 2.20681 0
    endloop
  endfacet
  facet normal 0.674378 -0.738387 0
    outer loop
      vertex 37.3465 2.20681 20
      vertex 36.8591 1.76165 20
      vertex 37.3465 2.20681 0
    endloop
  endfacet
  facet normal 0.806769 -0.590867 0
    outer loop
      vertex 37.3465 2.20681 20
      vertex 37.3465 2.20681 0
      vertex 37.8908 2.94999 0
    endloop
  endfacet
  facet normal 0.806769 -0.590867 0
    outer loop
      vertex 37.8908 2.94999 20
      vertex 37.3465 2.20681 20
      vertex 37.8908 2.94999 0
    endloop
  endfacet
  facet normal 0.907591 -0.419856 0
    outer loop
      vertex 37.8908 2.94999 20
      vertex 37.8908 2.94999 0
      vertex 38.3889 4.02676 0
    endloop
  endfacet
  facet normal 0.907591 -0.419856 0
    outer loop
      vertex 38.3889 4.02676 20
      vertex 37.8908 2.94999 20
      vertex 38.3889 4.02676 0
    endloop
  endfacet
  facet normal 0.891007 0.45399 0
    outer loop
      vertex 38.3889 4.02676 0
      vertex 38.1886 4.41991 0
      vertex 38.1886 4.41991 20
    endloop
  endfacet
  facet normal 0.891007 0.45399 0
    outer loop
      vertex 38.3889 4.02676 20
      vertex 38.3889 4.02676 0
      vertex 38.1886 4.41991 20
    endloop
  endfacet
  facet normal 0.193798 0.981042 0
    outer loop
      vertex 37.0247 4.64983 0
      vertex 37.0247 4.64983 20
      vertex 38.1886 4.41991 0
    endloop
  endfacet
  facet normal 0.193798 0.981042 0
    outer loop
      vertex 38.1886 4.41991 0
      vertex 37.0247 4.64983 20
      vertex 38.1886 4.41991 20
    endloop
  endfacet
  facet normal -0.00381512 0.999993 0
    outer loop
      vertex 36.1035 4.64632 0
      vertex 36.1035 4.64632 20
      vertex 37.0247 4.64983 0
    endloop
  endfacet
  facet normal -0.00381512 0.999993 0
    outer loop
      vertex 37.0247 4.64983 0
      vertex 36.1035 4.64632 20
      vertex 37.0247 4.64983 20
    endloop
  endfacet
  facet normal -0.200978 0.979596 0
    outer loop
      vertex 35.4569 4.51365 0
      vertex 35.4569 4.51365 20
      vertex 36.1035 4.64632 0
    endloop
  endfacet
  facet normal -0.200978 0.979596 0
    outer loop
      vertex 36.1035 4.64632 0
      vertex 35.4569 4.51365 20
      vertex 36.1035 4.64632 20
    endloop
  endfacet
  facet normal -0.390648 0.92054 0
    outer loop
      vertex 35.0934 4.35941 0
      vertex 35.0934 4.35941 20
      vertex 35.4569 4.51365 0
    endloop
  endfacet
  facet normal -0.390648 0.92054 0
    outer loop
      vertex 35.4569 4.51365 0
      vertex 35.0934 4.35941 20
      vertex 35.4569 4.51365 20
    endloop
  endfacet
  facet normal -0.546647 0.837363 0
    outer loop
      vertex 34.9827 4.2871 0
      vertex 34.9827 4.2871 20
      vertex 35.0934 4.35941 0
    endloop
  endfacet
  facet normal -0.546647 0.837363 0
    outer loop
      vertex 35.0934 4.35941 0
      vertex 34.9827 4.2871 20
      vertex 35.0934 4.35941 20
    endloop
  endfacet
  facet normal -0.652108 0.758126 0
    outer loop
      vertex 34.0502 3.485 0
      vertex 34.0502 3.485 20
      vertex 34.9827 4.2871 0
    endloop
  endfacet
  facet normal -0.652108 0.758126 0
    outer loop
      vertex 34.9827 4.2871 0
      vertex 34.0502 3.485 20
      vertex 34.9827 4.2871 20
    endloop
  endfacet
  facet normal 0.649427 0.760424 0
    outer loop
      vertex 32.8081 4.54572 0
      vertex 32.8081 4.54572 20
      vertex 34.0502 3.485 0
    endloop
  endfacet
  facet normal 0.649427 0.760424 0
    outer loop
      vertex 34.0502 3.485 0
      vertex 32.8081 4.54572 20
      vertex 34.0502 3.485 20
    endloop
  endfacet
  facet normal 0.850524 -0.525935 0
    outer loop
      vertex 32.8081 4.54572 20
      vertex 32.8081 4.54572 0
      vertex 33.4551 5.592 0
    endloop
  endfacet
  facet normal 0.850524 -0.525935 0
    outer loop
      vertex 33.4551 5.592 20
      vertex 32.8081 4.54572 20
      vertex 33.4551 5.592 0
    endloop
  endfacet
  facet normal 0.912834 -0.408331 0
    outer loop
      vertex 33.4551 5.592 20
      vertex 33.4551 5.592 0
      vertex 33.5089 5.71226 0
    endloop
  endfacet
  facet normal 0.912834 -0.408331 0
    outer loop
      vertex 33.5089 5.71226 20
      vertex 33.4551 5.592 20
      vertex 33.5089 5.71226 0
    endloop
  endfacet
  facet normal 0.970569 -0.240822 0
    outer loop
      vertex 33.5089 5.71226 20
      vertex 33.5089 5.71226 0
      vertex 33.604 6.09563 0
    endloop
  endfacet
  facet normal 0.970569 -0.240822 0
    outer loop
      vertex 33.604 6.09563 20
      vertex 33.5089 5.71226 20
      vertex 33.604 6.09563 0
    endloop
  endfacet
  facet normal 0.998958 -0.045631 0
    outer loop
      vertex 33.604 6.09563 20
      vertex 33.604 6.09563 0
      vertex 33.6341 6.75458 0
    endloop
  endfacet
  facet normal 0.998958 -0.045631 0
    outer loop
      vertex 33.6341 6.75458 20
      vertex 33.604 6.09563 20
      vertex 33.6341 6.75458 0
    endloop
  endfacet
  facet normal 0.988336 0.15229 0
    outer loop
      vertex 33.6341 6.75458 0
      vertex 33.4938 7.66554 0
      vertex 33.4938 7.66554 20
    endloop
  endfacet
  facet normal 0.988336 0.15229 0
    outer loop
      vertex 33.6341 6.75458 20
      vertex 33.6341 6.75458 0
      vertex 33.4938 7.66554 20
    endloop
  endfacet
  facet normal 0.938767 0.344553 0
    outer loop
      vertex 33.4938 7.66554 0
      vertex 33.085 8.77939 0
      vertex 33.085 8.77939 20
    endloop
  endfacet
  facet normal 0.938767 0.344553 0
    outer loop
      vertex 33.4938 7.66554 20
      vertex 33.4938 7.66554 0
      vertex 33.085 8.77939 20
    endloop
  endfacet
  facet normal 0.309017 0.951057 0
    outer loop
      vertex 32.6646 8.91597 0
      vertex 32.6646 8.91597 20
      vertex 33.085 8.77939 0
    endloop
  endfacet
  facet normal 0.309017 0.951057 0
    outer loop
      vertex 33.085 8.77939 0
      vertex 32.6646 8.91597 20
      vertex 33.085 8.77939 20
    endloop
  endfacet
  facet normal -0.556955 0.830543 0
    outer loop
      vertex 31.6792 8.25515 0
      vertex 31.6792 8.25515 20
      vertex 32.6646 8.91597 0
    endloop
  endfacet
  facet normal -0.556955 0.830543 0
    outer loop
      vertex 32.6646 8.91597 0
      vertex 31.6792 8.25515 20
      vertex 32.6646 8.91597 20
    endloop
  endfacet
  facet normal -0.710067 0.704134 0
    outer loop
      vertex 31.0302 7.60067 0
      vertex 31.0302 7.60067 20
      vertex 31.6792 8.25515 0
    endloop
  endfacet
  facet normal -0.710067 0.704134 0
    outer loop
      vertex 31.6792 8.25515 0
      vertex 31.0302 7.60067 20
      vertex 31.6792 8.25515 20
    endloop
  endfacet
  facet normal -0.834996 0.550257 0
    outer loop
      vertex 30.6672 7.04987 0
      vertex 30.6672 7.04987 20
      vertex 31.0302 7.60067 0
    endloop
  endfacet
  facet normal -0.834996 0.550257 0
    outer loop
      vertex 31.0302 7.60067 0
      vertex 30.6672 7.04987 20
      vertex 31.0302 7.60067 20
    endloop
  endfacet
  facet normal -0.926759 0.375657 0
    outer loop
      vertex 30.5188 6.68381 0
      vertex 30.5188 6.68381 20
      vertex 30.6672 7.04987 0
    endloop
  endfacet
  facet normal -0.926759 0.375657 0
    outer loop
      vertex 30.6672 7.04987 0
      vertex 30.5188 6.68381 20
      vertex 30.6672 7.04987 20
    endloop
  endfacet
  facet normal -0.978509 0.206203 0
    outer loop
      vertex 30.4916 6.5549 0
      vertex 30.4916 6.5549 20
      vertex 30.5188 6.68381 0
    endloop
  endfacet
  facet normal -0.978509 0.206203 0
    outer loop
      vertex 30.5188 6.68381 0
      vertex 30.4916 6.5549 20
      vertex 30.5188 6.68381 20
    endloop
  endfacet
  facet normal -0.997226 0.074435 0
    outer loop
      vertex 30.4001 5.32815 0
      vertex 30.4001 5.32815 20
      vertex 30.4916 6.5549 0
    endloop
  endfacet
  facet normal -0.997226 0.074435 0
    outer loop
      vertex 30.4916 6.5549 0
      vertex 30.4001 5.32815 20
      vertex 30.4916 6.5549 20
    endloop
  endfacet
  facet normal -0.0784319 0.996919 0
    outer loop
      vertex 28.7718 5.20005 0
      vertex 28.7718 5.20005 20
      vertex 30.4001 5.32815 0
    endloop
  endfacet
  facet normal -0.0784319 0.996919 0
    outer loop
      vertex 30.4001 5.32815 0
      vertex 28.7718 5.20005 20
      vertex 30.4001 5.32815 20
    endloop
  endfacet
  facet normal 0.973182 0.230038 0
    outer loop
      vertex 28.7718 5.20005 0
      vertex 28.4888 6.39707 0
      vertex 28.4888 6.39707 20
    endloop
  endfacet
  facet normal 0.973182 0.230038 0
    outer loop
      vertex 28.7718 5.20005 20
      vertex 28.7718 5.20005 0
      vertex 28.4888 6.39707 20
    endloop
  endfacet
  facet normal 0.934436 0.35613 0
    outer loop
      vertex 28.4888 6.39707 0
      vertex 28.4417 6.52068 0
      vertex 28.4417 6.52068 20
    endloop
  endfacet
  facet normal 0.934436 0.35613 0
    outer loop
      vertex 28.4888 6.39707 20
      vertex 28.4888 6.39707 0
      vertex 28.4417 6.52068 20
    endloop
  endfacet
  facet normal 0.857121 0.515116 0
    outer loop
      vertex 28.4417 6.52068 0
      vertex 28.2384 6.85909 0
      vertex 28.2384 6.85909 20
    endloop
  endfacet
  facet normal 0.857121 0.515116 0
    outer loop
      vertex 28.4417 6.52068 20
      vertex 28.4417 6.52068 0
      vertex 28.2384 6.85909 20
    endloop
  endfacet
  facet normal 0.738387 0.674378 0
    outer loop
      vertex 28.2384 6.85909 0
      vertex 27.7932 7.34651 0
      vertex 27.7932 7.34651 20
    endloop
  endfacet
  facet normal 0.738387 0.674378 0
    outer loop
      vertex 28.2384 6.85909 20
      vertex 28.2384 6.85909 0
      vertex 27.7932 7.34651 20
    endloop
  endfacet
  facet normal 0.590867 0.806769 0
    outer loop
      vertex 27.05 7.8908 0
      vertex 27.05 7.8908 20
      vertex 27.7932 7.34651 0
    endloop
  endfacet
  facet normal 0.590867 0.806769 0
    outer loop
      vertex 27.7932 7.34651 0
      vertex 27.05 7.8908 20
      vertex 27.7932 7.34651 20
    endloop
  endfacet
  facet normal 0.419856 0.907591 0
    outer loop
      vertex 25.9732 8.38892 0
      vertex 25.9732 8.38892 20
      vertex 27.05 7.8908 0
    endloop
  endfacet
  facet normal 0.419856 0.907591 0
    outer loop
      vertex 27.05 7.8908 0
      vertex 25.9732 8.38892 20
      vertex 27.05 7.8908 20
    endloop
  endfacet
  facet normal -0.45399 0.891007 0
    outer loop
      vertex 25.5801 8.18861 0
      vertex 25.5801 8.18861 20
      vertex 25.9732 8.38892 0
    endloop
  endfacet
  facet normal -0.45399 0.891007 0
    outer loop
      vertex 25.9732 8.38892 0
      vertex 25.5801 8.18861 20
      vertex 25.9732 8.38892 20
    endloop
  endfacet
  facet normal -0.981042 0.193798 0
    outer loop
      vertex 25.3502 7.02469 0
      vertex 25.3502 7.02469 20
      vertex 25.5801 8.18861 0
    endloop
  endfacet
  facet normal -0.981042 0.193798 0
    outer loop
      vertex 25.5801 8.18861 0
      vertex 25.3502 7.02469 20
      vertex 25.5801 8.18861 20
    endloop
  endfacet
  facet normal -0.999993 -0.00381512 0
    outer loop
      vertex 25.3502 7.02469 0
      vertex 25.3537 6.10352 0
      vertex 25.3502 7.02469 20
    endloop
  endfacet
  facet normal -0.999993 -0.00381512 0
    outer loop
      vertex 25.3502 7.02469 20
      vertex 25.3537 6.10352 0
      vertex 25.3537 6.10352 20
    endloop
  endfacet
  facet normal -0.979596 -0.200978 0
    outer loop
      vertex 25.3537 6.10352 0
      vertex 25.4864 5.45687 0
      vertex 25.3537 6.10352 20
    endloop
  endfacet
  facet normal -0.979596 -0.200978 0
    outer loop
      vertex 25.3537 6.10352 20
      vertex 25.4864 5.45687 0
      vertex 25.4864 5.45687 20
    endloop
  endfacet
  facet normal -0.92054 -0.390648 0
    outer loop
      vertex 25.4864 5.45687 0
      vertex 25.6406 5.09342 0
      vertex 25.4864 5.45687 20
    endloop
  endfacet
  facet normal -0.92054 -0.390648 0
    outer loop
      vertex 25.4864 5.45687 20
      vertex 25.6406 5.09342 0
      vertex 25.6406 5.09342 20
    endloop
  endfacet
  facet normal -0.837363 -0.546647 0
    outer loop
      vertex 25.6406 5.09342 0
      vertex 25.7129 4.98266 0
      vertex 25.6406 5.09342 20
    endloop
  endfacet
  facet normal -0.837363 -0.546647 0
    outer loop
      vertex 25.6406 5.09342 20
      vertex 25.7129 4.98266 0
      vertex 25.7129 4.98266 20
    endloop
  endfacet
  facet normal -0.758126 -0.652108 0
    outer loop
      vertex 25.7129 4.98266 0
      vertex 26.515 4.05015 0
      vertex 25.7129 4.98266 20
    endloop
  endfacet
  facet normal -0.758126 -0.652108 0
    outer loop
      vertex 25.7129 4.98266 20
      vertex 26.515 4.05015 0
      vertex 26.515 4.05015 20
    endloop
  endfacet
  facet normal -0.760424 0.649427 0
    outer loop
      vertex 25.4543 2.80814 0
      vertex 25.4543 2.80814 20
      vertex 26.515 4.05015 0
    endloop
  endfacet
  facet normal -0.760424 0.649427 0
    outer loop
      vertex 26.515 4.05015 0
      vertex 25.4543 2.80814 20
      vertex 26.515 4.05015 20
    endloop
  endfacet
  facet normal 0.525935 0.850524 0
    outer loop
      vertex 24.408 3.45513 0
      vertex 24.408 3.45513 20
      vertex 25.4543 2.80814 0
    endloop
  endfacet
  facet normal 0.525935 0.850524 0
    outer loop
      vertex 25.4543 2.80814 0
      vertex 24.408 3.45513 20
      vertex 25.4543 2.80814 20
    endloop
  endfacet
  facet normal 0.408331 0.912834 0
    outer loop
      vertex 24.2877 3.50892 0
      vertex 24.2877 3.50892 20
      vertex 24.408 3.45513 0
    endloop
  endfacet
  facet normal 0.408331 0.912834 0
    outer loop
      vertex 24.408 3.45513 0
      vertex 24.2877 3.50892 20
      vertex 24.408 3.45513 20
    endloop
  endfacet
  facet normal 0.240822 0.970569 0
    outer loop
      vertex 23.9044 3.60405 0
      vertex 23.9044 3.60405 20
      vertex 24.2877 3.50892 0
    endloop
  endfacet
  facet normal 0.240822 0.970569 0
    outer loop
      vertex 24.2877 3.50892 0
      vertex 23.9044 3.60405 20
      vertex 24.2877 3.50892 20
    endloop
  endfacet
  facet normal 0.045631 0.998958 0
    outer loop
      vertex 23.2454 3.63415 0
      vertex 23.2454 3.63415 20
      vertex 23.9044 3.60405 0
    endloop
  endfacet
  facet normal 0.045631 0.998958 0
    outer loop
      vertex 23.9044 3.60405 0
      vertex 23.2454 3.63415 20
      vertex 23.9044 3.60405 20
    endloop
  endfacet
  facet normal -0.15229 0.988336 0
    outer loop
      vertex 22.3345 3.49378 0
      vertex 22.3345 3.49378 20
      vertex 23.2454 3.63415 0
    endloop
  endfacet
  facet normal -0.15229 0.988336 0
    outer loop
      vertex 23.2454 3.63415 0
      vertex 22.3345 3.49378 20
      vertex 23.2454 3.63415 20
    endloop
  endfacet
  facet normal -0.344553 0.938767 0
    outer loop
      vertex 21.2206 3.08497 0
      vertex 21.2206 3.08497 20
      vertex 22.3345 3.49378 0
    endloop
  endfacet
  facet normal -0.344553 0.938767 0
    outer loop
      vertex 22.3345 3.49378 0
      vertex 21.2206 3.08497 20
      vertex 22.3345 3.49378 20
    endloop
  endfacet
  facet normal 0.994522 -0.104529 0
    outer loop
      vertex 27.5546 0.519779 0
      vertex 27.5546 0.519779 20
      vertex 27.5 0 20
    endloop
  endfacet
  facet normal 0.994522 -0.104529 0
    outer loop
      vertex 27.5 0 0
      vertex 27.5546 0.519779 0
      vertex 27.5 0 20
    endloop
  endfacet
  facet normal 0.994522 0.104529 0
    outer loop
      vertex 27.5 0 20
      vertex 27.5546 -0.519779 20
      vertex 27.5546 -0.519779 0
    endloop
  endfacet
  facet normal 0.994522 0.104529 0
    outer loop
      vertex 27.5 0 0
      vertex 27.5 0 20
      vertex 27.5546 -0.519779 0
    endloop
  endfacet
  facet normal 0.951057 -0.309016 0
    outer loop
      vertex 27.7161 1.01684 0
      vertex 27.7161 1.01684 20
      vertex 27.5546 0.519779 20
    endloop
  endfacet
  facet normal 0.951057 -0.309016 0
    outer loop
      vertex 27.5546 0.519779 0
      vertex 27.7161 1.01684 0
      vertex 27.5546 0.519779 20
    endloop
  endfacet
  facet normal 0.866024 -0.500002 0
    outer loop
      vertex 27.9775 1.46946 0
      vertex 27.9775 1.46946 20
      vertex 27.7161 1.01684 20
    endloop
  endfacet
  facet normal 0.866024 -0.500002 0
    outer loop
      vertex 27.7161 1.01684 0
      vertex 27.9775 1.46946 0
      vertex 27.7161 1.01684 20
    endloop
  endfacet
  facet normal 0.743146 -0.66913 0
    outer loop
      vertex 28.005 1.5 0
      vertex 28.005 1.5 20
      vertex 27.9775 1.46946 20
    endloop
  endfacet
  facet normal 0.743146 -0.66913 0
    outer loop
      vertex 27.9775 1.46946 0
      vertex 28.005 1.5 0
      vertex 27.9775 1.46946 20
    endloop
  endfacet
  facet normal 0 -1 0
    outer loop
      vertex 28.005 1.5 20
      vertex 28.005 1.5 0
      vertex 31.995 1.5 0
    endloop
  endfacet
  facet normal 0 -1 0
    outer loop
      vertex 31.995 1.5 20
      vertex 28.005 1.5 20
      vertex 31.995 1.5 0
    endloop
  endfacet
  facet normal -0.743146 -0.66913 0
    outer loop
      vertex 32.0225 1.46946 20
      vertex 31.995 1.5 20
      vertex 32.0225 1.46946 0
    endloop
  endfacet
  facet normal -0.743146 -0.66913 0
    outer loop
      vertex 32.0225 1.46946 0
      vertex 31.995 1.5 20
      vertex 31.995 1.5 0
    endloop
  endfacet
  facet normal -0.866024 -0.500002 0
    outer loop
      vertex 32.2839 1.01684 20
      vertex 32.0225 1.46946 20
      vertex 32.2839 1.01684 0
    endloop
  endfacet
  facet normal -0.866024 -0.500002 0
    outer loop
      vertex 32.2839 1.01684 0
      vertex 32.0225 1.46946 20
      vertex 32.0225 1.46946 0
    endloop
  endfacet
  facet normal -0.951057 -0.309016 0
    outer loop
      vertex 32.4454 0.519779 20
      vertex 32.2839 1.01684 20
      vertex 32.4454 0.519779 0
    endloop
  endfacet
  facet normal -0.951057 -0.309016 0
    outer loop
      vertex 32.4454 0.519779 0
      vertex 32.2839 1.01684 20
      vertex 32.2839 1.01684 0
    endloop
  endfacet
  facet normal -0.994522 -0.104529 0
    outer loop
      vertex 32.5 0 20
      vertex 32.4454 0.519779 20
      vertex 32.5 0 0
    endloop
  endfacet
  facet normal -0.994522 -0.104529 0
    outer loop
      vertex 32.5 0 0
      vertex 32.4454 0.519779 20
      vertex 32.4454 0.519779 0
    endloop
  endfacet
  facet normal -0.994522 0.104529 0
    outer loop
      vertex 32.5 0 20
      vertex 32.5 0 0
      vertex 32.4454 -0.519779 20
    endloop
  endfacet
  facet normal -0.994522 0.104529 0
    outer loop
      vertex 32.4454 -0.519779 20
      vertex 32.5 0 0
      vertex 32.4454 -0.519779 0
    endloop
  endfacet
  facet normal -0.951057 0.309016 0
    outer loop
      vertex 32.4454 -0.519779 20
      vertex 32.4454 -0.519779 0
      vertex 32.2839 -1.01684 20
    endloop
  endfacet
  facet normal -0.951057 0.309016 0
    outer loop
      vertex 32.2839 -1.01684 20
      vertex 32.4454 -0.519779 0
      vertex 32.2839 -1.01684 0
    endloop
  endfacet
  facet normal -0.866024 0.500002 0
    outer loop
      vertex 32.2839 -1.01684 20
      vertex 32.2839 -1.01684 0
      vertex 32.0225 -1.46946 20
    endloop
  endfacet
  facet normal -0.866024 0.500002 0
    outer loop
      vertex 32.0225 -1.46946 20
      vertex 32.2839 -1.01684 0
      vertex 32.0225 -1.46946 0
    endloop
  endfacet
  facet normal -0.743146 0.66913 0
    outer loop
      vertex 32.0225 -1.46946 20
      vertex 32.0225 -1.46946 0
      vertex 31.6728 -1.85786 20
    endloop
  endfacet
  facet normal -0.743146 0.66913 0
    outer loop
      vertex 31.6728 -1.85786 20
      vertex 32.0225 -1.46946 0
      vertex 31.6728 -1.85786 0
    endloop
  endfacet
  facet normal -0.587786 0.809017 0
    outer loop
      vertex 31.6728 -1.85786 20
      vertex 31.6728 -1.85786 0
      vertex 31.25 -2.16506 20
    endloop
  endfacet
  facet normal -0.587786 0.809017 0
    outer loop
      vertex 31.25 -2.16506 20
      vertex 31.6728 -1.85786 0
      vertex 31.25 -2.16506 0
    endloop
  endfacet
  facet normal -0.406735 0.913546 0
    outer loop
      vertex 31.25 -2.16506 20
      vertex 31.25 -2.16506 0
      vertex 30.7725 -2.37764 20
    endloop
  endfacet
  facet normal -0.406735 0.913546 0
    outer loop
      vertex 30.7725 -2.37764 20
      vertex 31.25 -2.16506 0
      vertex 30.7725 -2.37764 0
    endloop
  endfacet
  facet normal -0.207913 0.978147 0
    outer loop
      vertex 30.7725 -2.37764 20
      vertex 30.7725 -2.37764 0
      vertex 30.2613 -2.4863 20
    endloop
  endfacet
  facet normal -0.207913 0.978147 0
    outer loop
      vertex 30.2613 -2.4863 20
      vertex 30.7725 -2.37764 0
      vertex 30.2613 -2.4863 0
    endloop
  endfacet
  facet normal 0 1 0
    outer loop
      vertex 30.2613 -2.4863 20
      vertex 30.2613 -2.4863 0
      vertex 29.7387 -2.4863 20
    endloop
  endfacet
  facet normal 0 1 0
    outer loop
      vertex 29.7387 -2.4863 20
      vertex 30.2613 -2.4863 0
      vertex 29.7387 -2.4863 0
    endloop
  endfacet
  facet normal 0.207913 0.978147 0
    outer loop
      vertex 29.7387 -2.4863 20
      vertex 29.7387 -2.4863 0
      vertex 29.2275 -2.37764 20
    endloop
  endfacet
  facet normal 0.207913 0.978147 0
    outer loop
      vertex 29.2275 -2.37764 20
      vertex 29.7387 -2.4863 0
      vertex 29.2275 -2.37764 0
    endloop
  endfacet
  facet normal 0.406735 0.913546 0
    outer loop
      vertex 29.2275 -2.37764 20
      vertex 29.2275 -2.37764 0
      vertex 28.75 -2.16506 20
    endloop
  endfacet
  facet normal 0.406735 0.913546 0
    outer loop
      vertex 28.75 -2.16506 20
      vertex 29.2275 -2.37764 0
      vertex 28.75 -2.16506 0
    endloop
  endfacet
  facet normal 0.587786 0.809017 0
    outer loop
      vertex 28.75 -2.16506 20
      vertex 28.75 -2.16506 0
      vertex 28.3272 -1.85786 20
    endloop
  endfacet
  facet normal 0.587786 0.809017 0
    outer loop
      vertex 28.3272 -1.85786 20
      vertex 28.75 -2.16506 0
      vertex 28.3272 -1.85786 0
    endloop
  endfacet
  facet normal 0.743146 0.66913 0
    outer loop
      vertex 27.9775 -1.46946 20
      vertex 28.3272 -1.85786 20
      vertex 28.3272 -1.85786 0
    endloop
  endfacet
  facet normal 0.743146 0.66913 0
    outer loop
      vertex 27.9775 -1.46946 0
      vertex 27.9775 -1.46946 20
      vertex 28.3272 -1.85786 0
    endloop
  endfacet
  facet normal 0.866024 0.500002 0
    outer loop
      vertex 27.7161 -1.01684 20
      vertex 27.9775 -1.46946 20
      vertex 27.9775 -1.46946 0
    endloop
  endfacet
  facet normal 0.866024 0.500002 0
    outer loop
      vertex 27.7161 -1.01684 0
      vertex 27.7161 -1.01684 20
      vertex 27.9775 -1.46946 0
    endloop
  endfacet
  facet normal 0.951057 0.309016 0
    outer loop
      vertex 27.5546 -0.519779 20
      vertex 27.7161 -1.01684 20
      vertex 27.7161 -1.01684 0
    endloop
  endfacet
  facet normal 0.951057 0.309016 0
    outer loop
      vertex 27.5546 -0.519779 0
      vertex 27.5546 -0.519779 20
      vertex 27.7161 -1.01684 0
    endloop
  endfacet
endsolid OpenSCAD_Model
