solid OpenSCAD_Model
  facet normal -1 0 0
    outer loop
      vertex -29 -10 0
      vertex -29 -10 3
      vertex -29 10 0
    endloop
  endfacet
  facet normal -1 0 0
    outer loop
      vertex -29 10 0
      vertex -29 -10 3
      vertex -29 10 3
    endloop
  endfacet
  facet normal 0 -1 0
    outer loop
      vertex -29 -10 3
      vertex -29 -10 0
      vertex 24 -10 0
    endloop
  endfacet
  facet normal 0 -1 0
    outer loop
      vertex 24 -10 3
      vertex -29 -10 3
      vertex 24 -10 0
    endloop
  endfacet
  facet normal 0 0 -1
    outer loop
      vertex -3.75302 1.56366 0
      vertex -29 10 0
      vertex 29 10 0
    endloop
  endfacet
  facet normal 0 0 -1
    outer loop
      vertex 24 -10 0
      vertex 29 10 0
      vertex 29 -28 0
    endloop
  endfacet
  facet normal 0 0 -1
    outer loop
      vertex -18.4 0 0
      vertex 24 -10 0
      vertex -19.2 -1.38564 0
    endloop
  endfacet
  facet normal 0 0 -1
    outer loop
      vertex -29 -10 0
      vertex -29 10 0
      vertex -21.6 0 0
    endloop
  endfacet
  facet normal 0 0 -1
    outer loop
      vertex -29 -10 0
      vertex -21.6 0 0
      vertex -20.8 -1.38564 0
    endloop
  endfacet
  facet normal 0 0 -1
    outer loop
      vertex -29 -10 0
      vertex -20.8 -1.38564 0
      vertex 24 -10 0
    endloop
  endfacet
  facet normal 0 0 -1
    outer loop
      vertex -20.8 -1.38564 0
      vertex -19.2 -1.38564 0
      vertex 24 -10 0
    endloop
  endfacet
  facet normal 0 0 -1
    outer loop
      vertex -6.80194 0.867767 0
      vertex -29 10 0
      vertex -5.44504 1.94986 0
    endloop
  endfacet
  facet normal 0 0 -1
    outer loop
      vertex -20.8 1.38564 0
      vertex -29 10 0
      vertex -19.2 1.38564 0
    endloop
  endfacet
  facet normal 0 0 -1
    outer loop
      vertex -18.4 0 0
      vertex -19.2 1.38564 0
      vertex 24 -10 0
    endloop
  endfacet
  facet normal 0 0 -1
    outer loop
      vertex -21.6 0 0
      vertex -29 10 0
      vertex -20.8 1.38564 0
    endloop
  endfacet
  facet normal 0 0 -1
    outer loop
      vertex -19.2 1.38564 0
      vertex -29 10 0
      vertex -6.80194 0.867767 0
    endloop
  endfacet
  facet normal 0 0 -1
    outer loop
      vertex -19.2 1.38564 0
      vertex -6.80194 0.867767 0
      vertex -6.80194 -0.867767 0
    endloop
  endfacet
  facet normal 0 0 -1
    outer loop
      vertex -19.2 1.38564 0
      vertex -6.80194 -0.867767 0
      vertex -5.44504 -1.94986 0
    endloop
  endfacet
  facet normal 0 0 -1
    outer loop
      vertex -19.2 1.38564 0
      vertex -5.44504 -1.94986 0
      vertex 24 -10 0
    endloop
  endfacet
  facet normal 0 0 -1
    outer loop
      vertex -3 0 0
      vertex 24 -10 0
      vertex -3.75302 -1.56366 0
    endloop
  endfacet
  facet normal 0 0 -1
    outer loop
      vertex -3.75302 -1.56366 0
      vertex 24 -10 0
      vertex -5.44504 -1.94986 0
    endloop
  endfacet
  facet normal 0 0 -1
    outer loop
      vertex -3.75302 1.56366 0
      vertex 24 -10 0
      vertex -3 0 0
    endloop
  endfacet
  facet normal 0 0 -1
    outer loop
      vertex -5.44504 1.94986 0
      vertex -29 10 0
      vertex -3.75302 1.56366 0
    endloop
  endfacet
  facet normal 0 0 -1
    outer loop
      vertex 19.2 1.38564 0
      vertex -3.75302 1.56366 0
      vertex 29 10 0
    endloop
  endfacet
  facet normal 0 0 -1
    outer loop
      vertex 20.8 1.38564 0
      vertex 29 10 0
      vertex 21.6 0 0
    endloop
  endfacet
  facet normal 0 0 -1
    outer loop
      vertex 24 -10 0
      vertex -3.75302 1.56366 0
      vertex 18.4 0 0
    endloop
  endfacet
  facet normal 0 0 -1
    outer loop
      vertex 24 -10 0
      vertex 18.4 0 0
      vertex 19.2 -1.38564 0
    endloop
  endfacet
  facet normal 0 0 -1
    outer loop
      vertex 24 -10 0
      vertex 19.2 -1.38564 0
      vertex 20.8 -1.38564 0
    endloop
  endfacet
  facet normal 0 0 -1
    outer loop
      vertex 24 -10 0
      vertex 20.8 -1.38564 0
      vertex 29 10 0
    endloop
  endfacet
  facet normal 0 0 -1
    outer loop
      vertex 20.8 -1.38564 0
      vertex 21.6 0 0
      vertex 29 10 0
    endloop
  endfacet
  facet normal 0 0 -1
    outer loop
      vertex 19.2 1.38564 0
      vertex 29 10 0
      vertex 20.8 1.38564 0
    endloop
  endfacet
  facet normal 0 0 -1
    outer loop
      vertex 18.4 0 0
      vertex -3.75302 1.56366 0
      vertex 19.2 1.38564 0
    endloop
  endfacet
  facet normal 0 0 -1
    outer loop
      vertex 24 -10 0
      vertex 29 -28 0
      vertex 24 -28 0
    endloop
  endfacet
  facet normal 0 1 0
    outer loop
      vertex -29 10 0
      vertex -29 10 3
      vertex 29 10 0
    endloop
  endfacet
  facet normal 0 1 0
    outer loop
      vertex 29 10 0
      vertex -29 10 3
      vertex 29 10 3
    endloop
  endfacet
  facet normal 0 0 1
    outer loop
      vertex -20.8 -1.38564 3
      vertex -29 -10 3
      vertex 24 -10 3
    endloop
  endfacet
  facet normal 0 0 1
    outer loop
      vertex 19.2 -1.38564 3
      vertex -29 10 3
      vertex 29 -8 3
    endloop
  endfacet
  facet normal 0 0 1
    outer loop
      vertex -19.2 -1.38564 3
      vertex -20.8 -1.38564 3
      vertex 24 -10 3
    endloop
  endfacet
  facet normal 0 0 1
    outer loop
      vertex -29 10 3
      vertex -29 -10 3
      vertex -20.8 -1.38564 3
    endloop
  endfacet
  facet normal 0 0 1
    outer loop
      vertex -29 10 3
      vertex -20.8 -1.38564 3
      vertex -21.6 0 3
    endloop
  endfacet
  facet normal 0 0 1
    outer loop
      vertex -18.4 0 3
      vertex -19.2 -1.38564 3
      vertex 24 -10 3
    endloop
  endfacet
  facet normal 0 0 1
    outer loop
      vertex -29 10 3
      vertex -21.6 0 3
      vertex -20.8 1.38564 3
    endloop
  endfacet
  facet normal 0 0 1
    outer loop
      vertex -5.44504 -1.94986 3
      vertex -19.2 1.38564 3
      vertex 24 -10 3
    endloop
  endfacet
  facet normal 0 0 1
    outer loop
      vertex -29 10 3
      vertex -20.8 1.38564 3
      vertex -19.2 1.38564 3
    endloop
  endfacet
  facet normal 0 0 1
    outer loop
      vertex 19.2 1.38564 3
      vertex 20.8 1.38564 3
      vertex 29 10 3
    endloop
  endfacet
  facet normal 0 0 1
    outer loop
      vertex -29 10 3
      vertex -19.2 1.38564 3
      vertex -6.80194 -0.867767 3
    endloop
  endfacet
  facet normal 0 0 1
    outer loop
      vertex -3.75302 -1.56366 3
      vertex -5.44504 -1.94986 3
      vertex 24 -10 3
    endloop
  endfacet
  facet normal 0 0 1
    outer loop
      vertex -29 10 3
      vertex -6.80194 -0.867767 3
      vertex -6.80194 0.867767 3
    endloop
  endfacet
  facet normal 0 0 1
    outer loop
      vertex -3 0 3
      vertex -3.75302 -1.56366 3
      vertex 24 -10 3
    endloop
  endfacet
  facet normal 0 0 1
    outer loop
      vertex -3.75302 1.56366 3
      vertex 24 -10 3
      vertex 24 -8 3
    endloop
  endfacet
  facet normal 0 0 1
    outer loop
      vertex 29 -8 3
      vertex -3.75302 1.56366 3
      vertex 24 -8 3
    endloop
  endfacet
  facet normal 0 0 1
    outer loop
      vertex 29 -8 3
      vertex -29 10 3
      vertex -3.75302 1.56366 3
    endloop
  endfacet
  facet normal 0 0 1
    outer loop
      vertex -5.44504 1.94986 3
      vertex -3.75302 1.56366 3
      vertex -29 10 3
    endloop
  endfacet
  facet normal 0 0 1
    outer loop
      vertex -3.75302 1.56366 3
      vertex -3 0 3
      vertex 24 -10 3
    endloop
  endfacet
  facet normal 0 0 1
    outer loop
      vertex -6.80194 -0.867767 3
      vertex -19.2 1.38564 3
      vertex -5.44504 -1.94986 3
    endloop
  endfacet
  facet normal 0 0 1
    outer loop
      vertex 20.8 -1.38564 3
      vertex 19.2 -1.38564 3
      vertex 29 -8 3
    endloop
  endfacet
  facet normal 0 0 1
    outer loop
      vertex 18.4 0 3
      vertex -29 10 3
      vertex 19.2 -1.38564 3
    endloop
  endfacet
  facet normal 0 0 1
    outer loop
      vertex 19.2 1.38564 3
      vertex -29 10 3
      vertex 18.4 0 3
    endloop
  endfacet
  facet normal 0 0 1
    outer loop
      vertex 20.8 1.38564 3
      vertex 21.6 0 3
      vertex 29 10 3
    endloop
  endfacet
  facet normal 0 0 1
    outer loop
      vertex 29 10 3
      vertex -29 10 3
      vertex 19.2 1.38564 3
    endloop
  endfacet
  facet normal 0 0 1
    outer loop
      vertex 29 10 3
      vertex 21.6 0 3
      vertex 29 -8 3
    endloop
  endfacet
  facet normal 0 0 1
    outer loop
      vertex 21.6 0 3
      vertex 20.8 -1.38564 3
      vertex 29 -8 3
    endloop
  endfacet
  facet normal 0 0 1
    outer loop
      vertex -19.2 1.38564 3
      vertex -18.4 0 3
      vertex 24 -10 3
    endloop
  endfacet
  facet normal 0 0 1
    outer loop
      vertex -6.80194 0.867767 3
      vertex -5.44504 1.94986 3
      vertex -29 10 3
    endloop
  endfacet
  facet normal -1 0 0
    outer loop
      vertex 24 -21.6144 3.8
      vertex 24 -10 0
      vertex 24 -23 3
    endloop
  endfacet
  facet normal -1 0 0
    outer loop
      vertex 24 -17.7557 6.81966
      vertex 24 -28 8
      vertex 24 -19.0666 8
    endloop
  endfacet
  facet normal -1 0 0
    outer loop
      vertex 24 -23 6.2
      vertex 24 -28 8
      vertex 24 -17.7557 6.81966
    endloop
  endfacet
  facet normal -1 0 0
    outer loop
      vertex 24 -10 3
      vertex 24 -8 3.21021
      vertex 24 -8 3
    endloop
  endfacet
  facet normal -1 0 0
    outer loop
      vertex 24 -10 0
      vertex 24 -14.1347 4.72909
      vertex 24 -10.1582 3.43705
    endloop
  endfacet
  facet normal -1 0 0
    outer loop
      vertex 24 -24.3856 5.4
      vertex 24 -28 8
      vertex 24 -23 6.2
    endloop
  endfacet
  facet normal -1 0 0
    outer loop
      vertex 24 -10.1582 3.43705
      vertex 24 -8 3.21021
      vertex 24 -10 3
    endloop
  endfacet
  facet normal -1 0 0
    outer loop
      vertex 24 -10.1582 3.43705
      vertex 24 -10 3
      vertex 24 -10 0
    endloop
  endfacet
  facet normal -1 0 0
    outer loop
      vertex 24 -28 0
      vertex 24 -28 8
      vertex 24 -24.3856 5.4
    endloop
  endfacet
  facet normal -1 0 0
    outer loop
      vertex 24 -28 0
      vertex 24 -24.3856 5.4
      vertex 24 -24.3856 3.8
    endloop
  endfacet
  facet normal -1 0 0
    outer loop
      vertex 24 -28 0
      vertex 24 -24.3856 3.8
      vertex 24 -23 3
    endloop
  endfacet
  facet normal -1 0 0
    outer loop
      vertex 24 -28 0
      vertex 24 -23 3
      vertex 24 -10 0
    endloop
  endfacet
  facet normal -1 0 0
    outer loop
      vertex 24 -21.6144 5.4
      vertex 24 -10 0
      vertex 24 -21.6144 3.8
    endloop
  endfacet
  facet normal -1 0 0
    outer loop
      vertex 24 -10 0
      vertex 24 -21.6144 5.4
      vertex 24 -17.7557 6.81966
    endloop
  endfacet
  facet normal -1 0 0
    outer loop
      vertex 24 -21.6144 5.4
      vertex 24 -23 6.2
      vertex 24 -17.7557 6.81966
    endloop
  endfacet
  facet normal -1 0 0
    outer loop
      vertex 24 -14.1347 4.72909
      vertex 24 -10 0
      vertex 24 -17.7557 6.81966
    endloop
  endfacet
  facet normal 0 -1 0
    outer loop
      vertex 24 -28 8
      vertex 24 -28 0
      vertex 29 -28 0
    endloop
  endfacet
  facet normal 0 -1 0
    outer loop
      vertex 29 -28 8
      vertex 24 -28 8
      vertex 29 -28 0
    endloop
  endfacet
  facet normal 1 0 0
    outer loop
      vertex 29 -8 3
      vertex 29 -28 0
      vertex 29 10 0
    endloop
  endfacet
  facet normal 1 0 0
    outer loop
      vertex 29 -14.1347 4.72909
      vertex 29 -17.7557 6.81966
      vertex 29 -28 8
    endloop
  endfacet
  facet normal 1 0 0
    outer loop
      vertex 29 -10.1582 3.43705
      vertex 29 -28 0
      vertex 29 -8 3
    endloop
  endfacet
  facet normal 1 0 0
    outer loop
      vertex 29 -8 3.21021
      vertex 29 -10.1582 3.43705
      vertex 29 -8 3
    endloop
  endfacet
  facet normal 1 0 0
    outer loop
      vertex 29 -10.1582 3.43705
      vertex 29 -14.1347 4.72909
      vertex 29 -28 8
    endloop
  endfacet
  facet normal 1 0 0
    outer loop
      vertex 29 -23 3
      vertex 29 -28 0
      vertex 29 -10.1582 3.43705
    endloop
  endfacet
  facet normal 1 0 0
    outer loop
      vertex 29 -19.0666 8
      vertex 29 -28 8
      vertex 29 -17.7557 6.81966
    endloop
  endfacet
  facet normal 1 0 0
    outer loop
      vertex 29 -28 8
      vertex 29 -28 0
      vertex 29 -24.3856 3.8
    endloop
  endfacet
  facet normal 1 0 0
    outer loop
      vertex 29 -21.6144 3.8
      vertex 29 -23 3
      vertex 29 -10.1582 3.43705
    endloop
  endfacet
  facet normal 1 0 0
    outer loop
      vertex 29 -28 8
      vertex 29 -24.3856 3.8
      vertex 29 -24.3856 5.4
    endloop
  endfacet
  facet normal 1 0 0
    outer loop
      vertex 29 -28 8
      vertex 29 -23 6.2
      vertex 29 -10.1582 3.43705
    endloop
  endfacet
  facet normal 1 0 0
    outer loop
      vertex 29 -28 8
      vertex 29 -24.3856 5.4
      vertex 29 -23 6.2
    endloop
  endfacet
  facet normal 1 0 0
    outer loop
      vertex 29 -23 6.2
      vertex 29 -21.6144 5.4
      vertex 29 -10.1582 3.43705
    endloop
  endfacet
  facet normal 1 0 0
    outer loop
      vertex 29 -24.3856 3.8
      vertex 29 -28 0
      vertex 29 -23 3
    endloop
  endfacet
  facet normal 1 0 0
    outer loop
      vertex 29 -21.6144 5.4
      vertex 29 -21.6144 3.8
      vertex 29 -10.1582 3.43705
    endloop
  endfacet
  facet normal 1 0 0
    outer loop
      vertex 29 10 3
      vertex 29 -8 3
      vertex 29 10 0
    endloop
  endfacet
  facet normal 0.866025 -0.5 0
    outer loop
      vertex -20.8 1.38564 0
      vertex -20.8 1.38564 3
      vertex -21.6 0 3
    endloop
  endfacet
  facet normal 0.866025 -0.5 0
    outer loop
      vertex -21.6 0 0
      vertex -20.8 1.38564 0
      vertex -21.6 0 3
    endloop
  endfacet
  facet normal 0.866025 0.5 0
    outer loop
      vertex -21.6 0 3
      vertex -20.8 -1.38564 3
      vertex -20.8 -1.38564 0
    endloop
  endfacet
  facet normal 0.866025 0.5 0
    outer loop
      vertex -21.6 0 0
      vertex -21.6 0 3
      vertex -20.8 -1.38564 0
    endloop
  endfacet
  facet normal 0 -1 0
    outer loop
      vertex -19.2 1.38564 0
      vertex -19.2 1.38564 3
      vertex -20.8 1.38564 3
    endloop
  endfacet
  facet normal 0 -1 0
    outer loop
      vertex -20.8 1.38564 0
      vertex -19.2 1.38564 0
      vertex -20.8 1.38564 3
    endloop
  endfacet
  facet normal -0.866025 -0.5 0
    outer loop
      vertex -18.4 0 3
      vertex -19.2 1.38564 3
      vertex -18.4 0 0
    endloop
  endfacet
  facet normal -0.866025 -0.5 0
    outer loop
      vertex -18.4 0 0
      vertex -19.2 1.38564 3
      vertex -19.2 1.38564 0
    endloop
  endfacet
  facet normal -0.866025 0.5 0
    outer loop
      vertex -18.4 0 3
      vertex -18.4 0 0
      vertex -19.2 -1.38564 3
    endloop
  endfacet
  facet normal -0.866025 0.5 0
    outer loop
      vertex -19.2 -1.38564 3
      vertex -18.4 0 0
      vertex -19.2 -1.38564 0
    endloop
  endfacet
  facet normal 0 1 0
    outer loop
      vertex -19.2 -1.38564 3
      vertex -19.2 -1.38564 0
      vertex -20.8 -1.38564 3
    endloop
  endfacet
  facet normal 0 1 0
    outer loop
      vertex -20.8 -1.38564 3
      vertex -19.2 -1.38564 0
      vertex -20.8 -1.38564 0
    endloop
  endfacet
  facet normal 0.62349 -0.781831 0
    outer loop
      vertex -5.44504 1.94986 0
      vertex -5.44504 1.94986 3
      vertex -6.80194 0.867767 3
    endloop
  endfacet
  facet normal 0.62349 -0.781831 0
    outer loop
      vertex -6.80194 0.867767 0
      vertex -5.44504 1.94986 0
      vertex -6.80194 0.867767 3
    endloop
  endfacet
  facet normal 1 0 0
    outer loop
      vertex -6.80194 0.867767 0
      vertex -6.80194 0.867767 3
      vertex -6.80194 -0.867767 3
    endloop
  endfacet
  facet normal 1 0 0
    outer loop
      vertex -6.80194 -0.867767 0
      vertex -6.80194 0.867767 0
      vertex -6.80194 -0.867767 3
    endloop
  endfacet
  facet normal -0.222521 -0.974928 0
    outer loop
      vertex -3.75302 1.56366 0
      vertex -3.75302 1.56366 3
      vertex -5.44504 1.94986 3
    endloop
  endfacet
  facet normal -0.222521 -0.974928 0
    outer loop
      vertex -5.44504 1.94986 0
      vertex -3.75302 1.56366 0
      vertex -5.44504 1.94986 3
    endloop
  endfacet
  facet normal -0.900969 -0.433884 0
    outer loop
      vertex -3 0 3
      vertex -3.75302 1.56366 3
      vertex -3 0 0
    endloop
  endfacet
  facet normal -0.900969 -0.433884 0
    outer loop
      vertex -3 0 0
      vertex -3.75302 1.56366 3
      vertex -3.75302 1.56366 0
    endloop
  endfacet
  facet normal -0.900969 0.433884 0
    outer loop
      vertex -3 0 3
      vertex -3 0 0
      vertex -3.75302 -1.56366 3
    endloop
  endfacet
  facet normal -0.900969 0.433884 0
    outer loop
      vertex -3.75302 -1.56366 3
      vertex -3 0 0
      vertex -3.75302 -1.56366 0
    endloop
  endfacet
  facet normal -0.222521 0.974928 0
    outer loop
      vertex -3.75302 -1.56366 3
      vertex -3.75302 -1.56366 0
      vertex -5.44504 -1.94986 3
    endloop
  endfacet
  facet normal -0.222521 0.974928 0
    outer loop
      vertex -5.44504 -1.94986 3
      vertex -3.75302 -1.56366 0
      vertex -5.44504 -1.94986 0
    endloop
  endfacet
  facet normal 0.62349 0.781831 0
    outer loop
      vertex -5.44504 -1.94986 3
      vertex -5.44504 -1.94986 0
      vertex -6.80194 -0.867767 3
    endloop
  endfacet
  facet normal 0.62349 0.781831 0
    outer loop
      vertex -6.80194 -0.867767 3
      vertex -5.44504 -1.94986 0
      vertex -6.80194 -0.867767 0
    endloop
  endfacet
  facet normal 0.866025 -0.5 0
    outer loop
      vertex 19.2 1.38564 0
      vertex 19.2 1.38564 3
      vertex 18.4 0 3
    endloop
  endfacet
  facet normal 0.866025 -0.5 0
    outer loop
      vertex 18.4 0 0
      vertex 19.2 1.38564 0
      vertex 18.4 0 3
    endloop
  endfacet
  facet normal 0.866025 0.5 0
    outer loop
      vertex 18.4 0 3
      vertex 19.2 -1.38564 3
      vertex 19.2 -1.38564 0
    endloop
  endfacet
  facet normal 0.866025 0.5 0
    outer loop
      vertex 18.4 0 0
      vertex 18.4 0 3
      vertex 19.2 -1.38564 0
    endloop
  endfacet
  facet normal 0 -1 0
    outer loop
      vertex 20.8 1.38564 0
      vertex 20.8 1.38564 3
      vertex 19.2 1.38564 3
    endloop
  endfacet
  facet normal 0 -1 0
    outer loop
      vertex 19.2 1.38564 0
      vertex 20.8 1.38564 0
      vertex 19.2 1.38564 3
    endloop
  endfacet
  facet normal -0.866025 -0.5 0
    outer loop
      vertex 21.6 0 3
      vertex 20.8 1.38564 3
      vertex 21.6 0 0
    endloop
  endfacet
  facet normal -0.866025 -0.5 0
    outer loop
      vertex 21.6 0 0
      vertex 20.8 1.38564 3
      vertex 20.8 1.38564 0
    endloop
  endfacet
  facet normal -0.866025 0.5 0
    outer loop
      vertex 21.6 0 3
      vertex 21.6 0 0
      vertex 20.8 -1.38564 3
    endloop
  endfacet
  facet normal -0.866025 0.5 0
    outer loop
      vertex 20.8 -1.38564 3
      vertex 21.6 0 0
      vertex 20.8 -1.38564 0
    endloop
  endfacet
  facet normal 0 1 0
    outer loop
      vertex 20.8 -1.38564 3
      vertex 20.8 -1.38564 0
      vertex 19.2 -1.38564 3
    endloop
  endfacet
  facet normal 0 1 0
    outer loop
      vertex 19.2 -1.38564 3
      vertex 20.8 -1.38564 0
      vertex 19.2 -1.38564 0
    endloop
  endfacet
  facet normal 0 1 0
    outer loop
      vertex 24 -8 3
      vertex 24 -8 3.21021
      vertex 29 -8 3
    endloop
  endfacet
  facet normal 0 1 0
    outer loop
      vertex 29 -8 3
      vertex 24 -8 3.21021
      vertex 29 -8 3.21021
    endloop
  endfacet
  facet normal -2.20828e-16 0.104528 0.994522
    outer loop
      vertex 29 -10.1582 3.43705
      vertex 29 -8 3.21021
      vertex 24 -8 3.21021
    endloop
  endfacet
  facet normal -2.20828e-16 0.104528 0.994522
    outer loop
      vertex 24 -10.1582 3.43705
      vertex 29 -10.1582 3.43705
      vertex 24 -8 3.21021
    endloop
  endfacet
  facet normal -2.11177e-16 0.309017 0.951057
    outer loop
      vertex 29 -14.1347 4.72909
      vertex 29 -10.1582 3.43705
      vertex 24 -10.1582 3.43705
    endloop
  endfacet
  facet normal -2.11177e-16 0.309017 0.951057
    outer loop
      vertex 24 -14.1347 4.72909
      vertex 29 -14.1347 4.72909
      vertex 24 -10.1582 3.43705
    endloop
  endfacet
  facet normal -1.92296e-16 0.5 0.866025
    outer loop
      vertex 29 -17.7557 6.81966
      vertex 29 -14.1347 4.72909
      vertex 24 -14.1347 4.72909
    endloop
  endfacet
  facet normal -1.92296e-16 0.5 0.866025
    outer loop
      vertex 24 -17.7557 6.81966
      vertex 29 -17.7557 6.81966
      vertex 24 -14.1347 4.72909
    endloop
  endfacet
  facet normal -1.65011e-16 0.669131 0.743145
    outer loop
      vertex 29 -19.0666 8
      vertex 29 -17.7557 6.81966
      vertex 24 -17.7557 6.81966
    endloop
  endfacet
  facet normal -1.65011e-16 0.669131 0.743145
    outer loop
      vertex 24 -19.0666 8
      vertex 29 -19.0666 8
      vertex 24 -17.7557 6.81966
    endloop
  endfacet
  facet normal 0 0 1
    outer loop
      vertex 24 -19.0666 8
      vertex 24 -28 8
      vertex 29 -28 8
    endloop
  endfacet
  facet normal 0 0 1
    outer loop
      vertex 29 -19.0666 8
      vertex 24 -19.0666 8
      vertex 29 -28 8
    endloop
  endfacet
  facet normal 1.92296e-16 0.5 -0.866025
    outer loop
      vertex 29 -23 6.2
      vertex 29 -24.3856 5.4
      vertex 24 -23 6.2
    endloop
  endfacet
  facet normal 1.92296e-16 0.5 -0.866025
    outer loop
      vertex 24 -23 6.2
      vertex 29 -24.3856 5.4
      vertex 24 -24.3856 5.4
    endloop
  endfacet
  facet normal 0 1 0
    outer loop
      vertex 29 -24.3856 5.4
      vertex 29 -24.3856 3.8
      vertex 24 -24.3856 5.4
    endloop
  endfacet
  facet normal 0 1 0
    outer loop
      vertex 24 -24.3856 5.4
      vertex 29 -24.3856 3.8
      vertex 24 -24.3856 3.8
    endloop
  endfacet
  facet normal 1.92296e-16 -0.5 -0.866025
    outer loop
      vertex 29 -21.6144 5.4
      vertex 29 -23 6.2
      vertex 24 -21.6144 5.4
    endloop
  endfacet
  facet normal 1.92296e-16 -0.5 -0.866025
    outer loop
      vertex 24 -21.6144 5.4
      vertex 29 -23 6.2
      vertex 24 -23 6.2
    endloop
  endfacet
  facet normal 0 -1 0
    outer loop
      vertex 29 -21.6144 3.8
      vertex 29 -21.6144 5.4
      vertex 24 -21.6144 5.4
    endloop
  endfacet
  facet normal 0 -1 0
    outer loop
      vertex 24 -21.6144 3.8
      vertex 29 -21.6144 3.8
      vertex 24 -21.6144 5.4
    endloop
  endfacet
  facet normal -1.92296e-16 -0.5 0.866025
    outer loop
      vertex 29 -23 3
      vertex 29 -21.6144 3.8
      vertex 24 -21.6144 3.8
    endloop
  endfacet
  facet normal -1.92296e-16 -0.5 0.866025
    outer loop
      vertex 24 -23 3
      vertex 29 -23 3
      vertex 24 -21.6144 3.8
    endloop
  endfacet
  facet normal -1.92296e-16 0.5 0.866025
    outer loop
      vertex 29 -24.3856 3.8
      vertex 29 -23 3
      vertex 24 -23 3
    endloop
  endfacet
  facet normal -1.92296e-16 0.5 0.866025
    outer loop
      vertex 24 -24.3856 3.8
      vertex 29 -24.3856 3.8
      vertex 24 -23 3
    endloop
  endfacet
endsolid OpenSCAD_Model
