solid OpenSCAD_Model
  facet normal -0.707107 0 0.707107
    outer loop
      vertex -7.07107 10 7.07107
      vertex -7.07107 0 7.07107
      vertex -4.24264 0 9.89949
    endloop
  endfacet
  facet normal -0.707107 0 0.707107
    outer loop
      vertex -4.24264 10 9.89949
      vertex -7.07107 10 7.07107
      vertex -4.24264 0 9.89949
    endloop
  endfacet
  facet normal 0 -1 0
    outer loop
      vertex -4.24264 0 9.89949
      vertex -7.07107 0 7.07107
      vertex 0 0 0
    endloop
  endfacet
  facet normal 0 -1 0
    outer loop
      vertex 1.65685 0 4
      vertex -4.24264 0 9.89949
      vertex 0 0 0
    endloop
  endfacet
  facet normal 0 -1 0
    outer loop
      vertex 20 0 0
      vertex 1.65685 0 4
      vertex 0 0 0
    endloop
  endfacet
  facet normal 0 -1 0
    outer loop
      vertex 20 0 4
      vertex 1.65685 0 4
      vertex 20 0 0
    endloop
  endfacet
  facet normal -0.707107 0 -0.707107
    outer loop
      vertex -3.05482 7.09232 3.05482
      vertex -7.07107 10 7.07107
      vertex 0 10 0
    endloop
  endfacet
  facet normal -0.707107 0 -0.707107
    outer loop
      vertex -7.07107 0 7.07107
      vertex -7.07107 10 7.07107
      vertex -5.09117 5 5.09117
    endloop
  endfacet
  facet normal -0.707107 0 -0.707107
    outer loop
      vertex -7.07107 0 7.07107
      vertex -5.09117 5 5.09117
      vertex -4.79407 3.70687 4.79407
    endloop
  endfacet
  facet normal -0.707107 0 -0.707107
    outer loop
      vertex -7.07107 0 7.07107
      vertex -4.79407 3.70687 4.79407
      vertex -4.01625 2.90768 4.01625
    endloop
  endfacet
  facet normal -0.707107 0 -0.707107
    outer loop
      vertex -7.07107 0 7.07107
      vertex -4.01625 2.90768 4.01625
      vertex 0 0 0
    endloop
  endfacet
  facet normal -0.707107 0 -0.707107
    outer loop
      vertex -2.277 3.70687 2.277
      vertex 0 0 0
      vertex -3.05482 2.90768 3.05482
    endloop
  endfacet
  facet normal -0.707107 0 -0.707107
    outer loop
      vertex -4.01625 7.09232 4.01625
      vertex -7.07107 10 7.07107
      vertex -3.05482 7.09232 3.05482
    endloop
  endfacet
  facet normal -0.707107 0 -0.707107
    outer loop
      vertex 0 0 0
      vertex -2.277 3.70687 2.277
      vertex 0 10 0
    endloop
  endfacet
  facet normal -0.707107 0 -0.707107
    outer loop
      vertex -2.277 3.70687 2.277
      vertex -1.9799 5 1.9799
      vertex 0 10 0
    endloop
  endfacet
  facet normal -0.707107 0 -0.707107
    outer loop
      vertex -4.79407 6.29313 4.79407
      vertex -7.07107 10 7.07107
      vertex -4.01625 7.09232 4.01625
    endloop
  endfacet
  facet normal -0.707107 0 -0.707107
    outer loop
      vertex -1.9799 5 1.9799
      vertex -2.277 6.29313 2.277
      vertex 0 10 0
    endloop
  endfacet
  facet normal -0.707107 0 -0.707107
    outer loop
      vertex -2.277 6.29313 2.277
      vertex -3.05482 7.09232 3.05482
      vertex 0 10 0
    endloop
  endfacet
  facet normal -0.707107 0 -0.707107
    outer loop
      vertex -5.09117 5 5.09117
      vertex -7.07107 10 7.07107
      vertex -4.79407 6.29313 4.79407
    endloop
  endfacet
  facet normal -0.707107 0 -0.707107
    outer loop
      vertex -3.05482 2.90768 3.05482
      vertex 0 0 0
      vertex -4.01625 2.90768 4.01625
    endloop
  endfacet
  facet normal 0 1 0
    outer loop
      vertex -7.07107 10 7.07107
      vertex -4.24264 10 9.89949
      vertex 0 10 0
    endloop
  endfacet
  facet normal 0 1 0
    outer loop
      vertex 0 10 0
      vertex -4.24264 10 9.89949
      vertex 1.65685 10 4
    endloop
  endfacet
  facet normal 0 1 0
    outer loop
      vertex 0 10 0
      vertex 1.65685 10 4
      vertex 20 10 4
    endloop
  endfacet
  facet normal 0 1 0
    outer loop
      vertex 0 10 0
      vertex 20 10 4
      vertex 20 10 0
    endloop
  endfacet
  facet normal 0.707107 0 0.707107
    outer loop
      vertex -1.18782 2.90768 6.84468
      vertex -4.24264 0 9.89949
      vertex 1.65685 0 4
    endloop
  endfacet
  facet normal 0.707107 0 0.707107
    outer loop
      vertex -4.24264 10 9.89949
      vertex -4.24264 0 9.89949
      vertex -1.96564 3.70687 7.6225
    endloop
  endfacet
  facet normal 0.707107 0 0.707107
    outer loop
      vertex -4.24264 10 9.89949
      vertex -1.96564 3.70687 7.6225
      vertex -2.26274 5 7.9196
    endloop
  endfacet
  facet normal 0.707107 0 0.707107
    outer loop
      vertex -1.18782 7.09232 6.84468
      vertex -4.24264 10 9.89949
      vertex -1.96564 6.29313 7.6225
    endloop
  endfacet
  facet normal 0.707107 0 0.707107
    outer loop
      vertex 1.65685 10 4
      vertex -4.24264 10 9.89949
      vertex -1.18782 7.09232 6.84468
    endloop
  endfacet
  facet normal 0.707107 0 0.707107
    outer loop
      vertex 0.551428 3.70687 5.10543
      vertex -0.226389 2.90768 5.88324
      vertex 1.65685 0 4
    endloop
  endfacet
  facet normal 0.707107 0 0.707107
    outer loop
      vertex -0.226389 2.90768 5.88324
      vertex -1.18782 2.90768 6.84468
      vertex 1.65685 0 4
    endloop
  endfacet
  facet normal 0.707107 0 0.707107
    outer loop
      vertex 1.65685 10 4
      vertex -0.226389 7.09232 5.88324
      vertex 0.551428 6.29313 5.10543
    endloop
  endfacet
  facet normal 0.707107 0 0.707107
    outer loop
      vertex 1.65685 10 4
      vertex 0.848528 5 4.80833
      vertex 1.65685 0 4
    endloop
  endfacet
  facet normal 0.707107 0 0.707107
    outer loop
      vertex 1.65685 10 4
      vertex 0.551428 6.29313 5.10543
      vertex 0.848528 5 4.80833
    endloop
  endfacet
  facet normal 0.707107 0 0.707107
    outer loop
      vertex -1.18782 7.09232 6.84468
      vertex -0.226389 7.09232 5.88324
      vertex 1.65685 10 4
    endloop
  endfacet
  facet normal 0.707107 0 0.707107
    outer loop
      vertex 0.848528 5 4.80833
      vertex 0.551428 3.70687 5.10543
      vertex 1.65685 0 4
    endloop
  endfacet
  facet normal 0.707107 0 0.707107
    outer loop
      vertex -1.96564 3.70687 7.6225
      vertex -4.24264 0 9.89949
      vertex -1.18782 2.90768 6.84468
    endloop
  endfacet
  facet normal 0.707107 0 0.707107
    outer loop
      vertex -2.26274 5 7.9196
      vertex -1.96564 6.29313 7.6225
      vertex -4.24264 10 9.89949
    endloop
  endfacet
  facet normal 0 0 1
    outer loop
      vertex 9.44377 3.2881 4
      vertex 1.65685 0 4
      vertex 20 0 4
    endloop
  endfacet
  facet normal 0 0 1
    outer loop
      vertex 11.4562 6.05801 4
      vertex 11.8 5 4
      vertex 20 0 4
    endloop
  endfacet
  facet normal 0 0 1
    outer loop
      vertex 1.65685 10 4
      vertex 1.65685 0 4
      vertex 8.54377 3.94199 4
    endloop
  endfacet
  facet normal 0 0 1
    outer loop
      vertex 10.5562 3.2881 4
      vertex 9.44377 3.2881 4
      vertex 20 0 4
    endloop
  endfacet
  facet normal 0 0 1
    outer loop
      vertex 1.65685 10 4
      vertex 8.54377 3.94199 4
      vertex 8.2 5 4
    endloop
  endfacet
  facet normal 0 0 1
    outer loop
      vertex 1.65685 10 4
      vertex 8.2 5 4
      vertex 8.54377 6.05801 4
    endloop
  endfacet
  facet normal 0 0 1
    outer loop
      vertex 11.8 5 4
      vertex 11.4562 3.94199 4
      vertex 20 0 4
    endloop
  endfacet
  facet normal 0 0 1
    outer loop
      vertex 20 10 4
      vertex 1.65685 10 4
      vertex 9.44377 6.7119 4
    endloop
  endfacet
  facet normal 0 0 1
    outer loop
      vertex 20 10 4
      vertex 10.5562 6.7119 4
      vertex 20 0 4
    endloop
  endfacet
  facet normal 0 0 1
    outer loop
      vertex 20 10 4
      vertex 9.44377 6.7119 4
      vertex 10.5562 6.7119 4
    endloop
  endfacet
  facet normal 0 0 1
    outer loop
      vertex 10.5562 6.7119 4
      vertex 11.4562 6.05801 4
      vertex 20 0 4
    endloop
  endfacet
  facet normal 0 0 1
    outer loop
      vertex 8.54377 3.94199 4
      vertex 1.65685 0 4
      vertex 9.44377 3.2881 4
    endloop
  endfacet
  facet normal 0 0 1
    outer loop
      vertex 11.4562 3.94199 4
      vertex 10.5562 3.2881 4
      vertex 20 0 4
    endloop
  endfacet
  facet normal 0 0 1
    outer loop
      vertex 8.54377 6.05801 4
      vertex 9.44377 6.7119 4
      vertex 1.65685 10 4
    endloop
  endfacet
  facet normal 1 0 0
    outer loop
      vertex 20 0 4
      vertex 20 0 0
      vertex 20 10 0
    endloop
  endfacet
  facet normal 1 0 0
    outer loop
      vertex 20 10 4
      vertex 20 0 4
      vertex 20 10 0
    endloop
  endfacet
  facet normal 0 0 -1
    outer loop
      vertex 10.5562 6.7119 0
      vertex 0 10 0
      vertex 20 10 0
    endloop
  endfacet
  facet normal 0 0 -1
    outer loop
      vertex 0 0 0
      vertex 0 10 0
      vertex 8.2 5 0
    endloop
  endfacet
  facet normal 0 0 -1
    outer loop
      vertex 0 0 0
      vertex 8.2 5 0
      vertex 8.54377 3.94199 0
    endloop
  endfacet
  facet normal 0 0 -1
    outer loop
      vertex 0 0 0
      vertex 8.54377 3.94199 0
      vertex 9.44377 3.2881 0
    endloop
  endfacet
  facet normal 0 0 -1
    outer loop
      vertex 0 0 0
      vertex 9.44377 3.2881 0
      vertex 20 0 0
    endloop
  endfacet
  facet normal 0 0 -1
    outer loop
      vertex 11.4562 3.94199 0
      vertex 20 0 0
      vertex 10.5562 3.2881 0
    endloop
  endfacet
  facet normal 0 0 -1
    outer loop
      vertex 10.5562 3.2881 0
      vertex 20 0 0
      vertex 9.44377 3.2881 0
    endloop
  endfacet
  facet normal 0 0 -1
    outer loop
      vertex 11.8 5 0
      vertex 20 0 0
      vertex 11.4562 3.94199 0
    endloop
  endfacet
  facet normal 0 0 -1
    outer loop
      vertex 20 0 0
      vertex 11.8 5 0
      vertex 20 10 0
    endloop
  endfacet
  facet normal 0 0 -1
    outer loop
      vertex 8.54377 6.05801 0
      vertex 0 10 0
      vertex 9.44377 6.7119 0
    endloop
  endfacet
  facet normal 0 0 -1
    outer loop
      vertex 11.8 5 0
      vertex 11.4562 6.05801 0
      vertex 20 10 0
    endloop
  endfacet
  facet normal 0 0 -1
    outer loop
      vertex 11.4562 6.05801 0
      vertex 10.5562 6.7119 0
      vertex 20 10 0
    endloop
  endfacet
  facet normal 0 0 -1
    outer loop
      vertex 9.44377 6.7119 0
      vertex 0 10 0
      vertex 10.5562 6.7119 0
    endloop
  endfacet
  facet normal 0 0 -1
    outer loop
      vertex 8.2 5 0
      vertex 0 10 0
      vertex 8.54377 6.05801 0
    endloop
  endfacet
  facet normal 0.672498 -0.309017 -0.672498
    outer loop
      vertex -1.96564 6.29313 7.6225
      vertex -2.26274 5 7.9196
      vertex -4.79407 6.29313 4.79407
    endloop
  endfacet
  facet normal 0.672498 -0.309017 -0.672498
    outer loop
      vertex -4.79407 6.29313 4.79407
      vertex -2.26274 5 7.9196
      vertex -5.09117 5 5.09117
    endloop
  endfacet
  facet normal 0.672498 0.309017 -0.672498
    outer loop
      vertex -1.96564 3.70687 7.6225
      vertex -4.79407 3.70687 4.79407
      vertex -2.26274 5 7.9196
    endloop
  endfacet
  facet normal 0.672498 0.309017 -0.672498
    outer loop
      vertex -2.26274 5 7.9196
      vertex -4.79407 3.70687 4.79407
      vertex -5.09117 5 5.09117
    endloop
  endfacet
  facet normal 0.415627 -0.809017 -0.415627
    outer loop
      vertex -4.01625 7.09232 4.01625
      vertex -1.18782 7.09232 6.84468
      vertex -1.96564 6.29313 7.6225
    endloop
  endfacet
  facet normal 0.415627 -0.809017 -0.415627
    outer loop
      vertex -4.79407 6.29313 4.79407
      vertex -4.01625 7.09232 4.01625
      vertex -1.96564 6.29313 7.6225
    endloop
  endfacet
  facet normal 0 -1 0
    outer loop
      vertex -3.05482 7.09232 3.05482
      vertex -0.226389 7.09232 5.88324
      vertex -1.18782 7.09232 6.84468
    endloop
  endfacet
  facet normal 0 -1 0
    outer loop
      vertex -4.01625 7.09232 4.01625
      vertex -3.05482 7.09232 3.05482
      vertex -1.18782 7.09232 6.84468
    endloop
  endfacet
  facet normal -0.415627 -0.809017 0.415627
    outer loop
      vertex -2.277 6.29313 2.277
      vertex 0.551428 6.29313 5.10543
      vertex -0.226389 7.09232 5.88324
    endloop
  endfacet
  facet normal -0.415627 -0.809017 0.415627
    outer loop
      vertex -3.05482 7.09232 3.05482
      vertex -2.277 6.29313 2.277
      vertex -0.226389 7.09232 5.88324
    endloop
  endfacet
  facet normal -0.672498 -0.309017 0.672498
    outer loop
      vertex -1.9799 5 1.9799
      vertex 0.848528 5 4.80833
      vertex 0.551428 6.29313 5.10543
    endloop
  endfacet
  facet normal -0.672498 -0.309017 0.672498
    outer loop
      vertex -2.277 6.29313 2.277
      vertex -1.9799 5 1.9799
      vertex 0.551428 6.29313 5.10543
    endloop
  endfacet
  facet normal -0.672498 0.309017 0.672498
    outer loop
      vertex 0.551428 3.70687 5.10543
      vertex 0.848528 5 4.80833
      vertex -1.9799 5 1.9799
    endloop
  endfacet
  facet normal -0.672498 0.309017 0.672498
    outer loop
      vertex -2.277 3.70687 2.277
      vertex 0.551428 3.70687 5.10543
      vertex -1.9799 5 1.9799
    endloop
  endfacet
  facet normal -0.415627 0.809017 0.415627
    outer loop
      vertex 0.551428 3.70687 5.10543
      vertex -2.277 3.70687 2.277
      vertex -0.226389 2.90768 5.88324
    endloop
  endfacet
  facet normal -0.415627 0.809017 0.415627
    outer loop
      vertex -0.226389 2.90768 5.88324
      vertex -2.277 3.70687 2.277
      vertex -3.05482 2.90768 3.05482
    endloop
  endfacet
  facet normal 0 1 0
    outer loop
      vertex -0.226389 2.90768 5.88324
      vertex -3.05482 2.90768 3.05482
      vertex -1.18782 2.90768 6.84468
    endloop
  endfacet
  facet normal 0 1 0
    outer loop
      vertex -1.18782 2.90768 6.84468
      vertex -3.05482 2.90768 3.05482
      vertex -4.01625 2.90768 4.01625
    endloop
  endfacet
  facet normal 0.415627 0.809017 -0.415627
    outer loop
      vertex -1.18782 2.90768 6.84468
      vertex -4.01625 2.90768 4.01625
      vertex -1.96564 3.70687 7.6225
    endloop
  endfacet
  facet normal 0.415627 0.809017 -0.415627
    outer loop
      vertex -1.96564 3.70687 7.6225
      vertex -4.01625 2.90768 4.01625
      vertex -4.79407 3.70687 4.79407
    endloop
  endfacet
  facet normal 0.951057 0.309017 0
    outer loop
      vertex 8.2 5 4
      vertex 8.54377 3.94199 4
      vertex 8.54377 3.94199 0
    endloop
  endfacet
  facet normal 0.951057 0.309017 0
    outer loop
      vertex 8.2 5 0
      vertex 8.2 5 4
      vertex 8.54377 3.94199 0
    endloop
  endfacet
  facet normal 0.587786 0.809017 0
    outer loop
      vertex 9.44377 3.2881 4
      vertex 9.44377 3.2881 0
      vertex 8.54377 3.94199 4
    endloop
  endfacet
  facet normal 0.587786 0.809017 0
    outer loop
      vertex 8.54377 3.94199 4
      vertex 9.44377 3.2881 0
      vertex 8.54377 3.94199 0
    endloop
  endfacet
  facet normal 0 1 0
    outer loop
      vertex 10.5562 3.2881 4
      vertex 10.5562 3.2881 0
      vertex 9.44377 3.2881 4
    endloop
  endfacet
  facet normal 0 1 0
    outer loop
      vertex 9.44377 3.2881 4
      vertex 10.5562 3.2881 0
      vertex 9.44377 3.2881 0
    endloop
  endfacet
  facet normal -0.587786 0.809017 0
    outer loop
      vertex 11.4562 3.94199 4
      vertex 11.4562 3.94199 0
      vertex 10.5562 3.2881 4
    endloop
  endfacet
  facet normal -0.587786 0.809017 0
    outer loop
      vertex 10.5562 3.2881 4
      vertex 11.4562 3.94199 0
      vertex 10.5562 3.2881 0
    endloop
  endfacet
  facet normal -0.951057 0.309017 0
    outer loop
      vertex 11.8 5 4
      vertex 11.8 5 0
      vertex 11.4562 3.94199 4
    endloop
  endfacet
  facet normal -0.951057 0.309017 0
    outer loop
      vertex 11.4562 3.94199 4
      vertex 11.8 5 0
      vertex 11.4562 3.94199 0
    endloop
  endfacet
  facet normal -0.951057 -0.309017 0
    outer loop
      vertex 11.8 5 4
      vertex 11.4562 6.05801 4
      vertex 11.8 5 0
    endloop
  endfacet
  facet normal -0.951057 -0.309017 0
    outer loop
      vertex 11.8 5 0
      vertex 11.4562 6.05801 4
      vertex 11.4562 6.05801 0
    endloop
  endfacet
  facet normal -0.587786 -0.809017 0
    outer loop
      vertex 11.4562 6.05801 0
      vertex 11.4562 6.05801 4
      vertex 10.5562 6.7119 4
    endloop
  endfacet
  facet normal -0.587786 -0.809017 0
    outer loop
      vertex 10.5562 6.7119 0
      vertex 11.4562 6.05801 0
      vertex 10.5562 6.7119 4
    endloop
  endfacet
  facet normal 0 -1 0
    outer loop
      vertex 10.5562 6.7119 0
      vertex 10.5562 6.7119 4
      vertex 9.44377 6.7119 4
    endloop
  endfacet
  facet normal 0 -1 0
    outer loop
      vertex 9.44377 6.7119 0
      vertex 10.5562 6.7119 0
      vertex 9.44377 6.7119 4
    endloop
  endfacet
  facet normal 0.587786 -0.809017 0
    outer loop
      vertex 9.44377 6.7119 0
      vertex 9.44377 6.7119 4
      vertex 8.54377 6.05801 4
    endloop
  endfacet
  facet normal 0.587786 -0.809017 0
    outer loop
      vertex 8.54377 6.05801 0
      vertex 9.44377 6.7119 0
      vertex 8.54377 6.05801 4
    endloop
  endfacet
  facet normal 0.951057 -0.309017 0
    outer loop
      vertex 8.54377 6.05801 0
      vertex 8.54377 6.05801 4
      vertex 8.2 5 4
    endloop
  endfacet
  facet normal 0.951057 -0.309017 0
    outer loop
      vertex 8.2 5 0
      vertex 8.54377 6.05801 0
      vertex 8.2 5 4
    endloop
  endfacet
endsolid OpenSCAD_Model
